ply
format ascii 1.0
comment : 
comment : MagicaVoxel @ ephtracy
element vertex 750
property float x
property float y
property float z
property uchar red
property uchar green
property uchar blue
element face 600
property list uchar int vertex_index
end_header
-3 -1.5 5 251 254 204
-2 -1.5 5 255 255 220
-2 -0.5 5 255 255 215
-3 -0.5 5 224 227 182
-2.5 -1 5 246 248 206
2 -0.5 3 255 255 221
3 -0.5 3 252 255 205
3 0.5 3 239 242 194
2 0.5 3 255 255 217
2.5 0 3 250 251 209
-5 -0.5 5 255 255 213
-4 -0.5 5 220 223 179
-4 0.5 5 221 223 179
-5 0.5 5 255 255 213
-4.5 0 5 237 239 196
0 -1.5 3 255 255 220
1 -1.5 3 255 255 227
1 -0.5 3 255 255 224
0 -0.5 3 255 255 216
0.5 -1 3 255 255 222
-3 -0.5 5 224 227 182
-2 -0.5 5 255 255 215
-2 0.5 5 255 255 215
-3 0.5 5 224 227 182
-2.5 0 5 239 241 199
-2 -1.5 3 226 228 183
-1 -1.5 3 248 251 202
-1 -0.5 3 232 235 189
-2 -0.5 3 207 209 168
-1.5 -1 3 228 231 186
-5 -1.5 5 255 255 218
-4 -1.5 5 248 251 202
-4 -0.5 5 220 223 179
-5 -0.5 5 255 255 213
-4.5 -1 5 244 246 203
-3 0.5 5 224 227 182
-2 0.5 5 255 255 215
-2 1.5 5 255 255 220
-3 1.5 5 248 251 202
-2.5 1 5 245 247 205
-4 0.5 6 255 255 239
-3 0.5 6 255 255 239
-3 1.5 6 255 255 239
-4 1.5 6 255 255 239
-3.5 1 6 255 255 239
-4 -1.5 6 255 255 239
-3 -1.5 6 255 255 239
-3 -0.5 6 255 255 239
-4 -0.5 6 255 255 239
-3.5 -1 6 255 255 239
4 -0.5 4 236 239 192
5 -0.5 4 237 240 193
5 0.5 4 221 223 179
4 0.5 4 214 217 174
4.5 0 4 227 230 185
-5 0.5 5 255 255 213
-4 0.5 5 221 223 179
-4 1.5 5 245 248 199
-5 1.5 5 255 255 218
-4.5 1 5 244 245 202
-2 -0.5 3 207 209 168
-1 -0.5 3 232 235 189
-1 0.5 3 233 236 189
-2 0.5 3 207 210 168
-1.5 0 3 220 222 179
1 -0.5 3 255 255 224
2 -0.5 3 255 255 221
2 0.5 3 255 255 217
1 0.5 3 255 255 224
1.5 0 3 255 255 221
-4 -0.5 5 220 223 179
-3 -0.5 5 224 227 182
-3 0.5 5 224 227 182
-4 0.5 5 221 223 179
-3.5 0 5 222 225 181
1 -1.5 3 255 255 227
2 -1.5 3 255 255 226
2 -0.5 3 255 255 221
1 -0.5 3 255 255 224
1.5 -1 3 255 255 225
2 -1.5 3 255 255 226
3 -1.5 3 255 255 220
3 -0.5 3 252 255 205
2 -0.5 3 255 255 221
2.5 -1 3 254 255 218
3 -0.5 3 252 255 205
4 -0.5 3 235 237 191
4 0.5 3 206 209 168
3 0.5 3 239 242 194
3.5 0 3 233 236 189
-2 0.5 3 207 210 168
-1 0.5 3 233 236 189
-1 1.5 3 251 254 204
-2 1.5 3 226 229 184
-1.5 1 3 229 232 186
-1 0.5 3 233 236 189
0 0.5 3 255 255 217
0 1.5 3 255 255 221
-1 1.5 3 251 254 204
-0.5 1 3 248 250 208
0 0.5 3 255 255 217
1 0.5 3 255 255 224
1 1.5 3 255 255 226
0 1.5 3 255 255 221
0.5 1 3 255 255 222
-1 -0.5 3 232 235 189
0 -0.5 3 255 255 216
0 0.5 3 255 255 217
-1 0.5 3 233 236 189
-0.5 0 3 243 245 203
1 0.5 3 255 255 224
2 0.5 3 255 255 217
2 1.5 3 255 255 218
1 1.5 3 255 255 226
1.5 1 3 255 255 221
0 -0.5 3 255 255 216
1 -0.5 3 255 255 224
1 0.5 3 255 255 224
0 0.5 3 255 255 217
0.5 0 3 255 255 220
-1 -1.5 3 248 251 202
0 -1.5 3 255 255 220
0 -0.5 3 255 255 216
-1 -0.5 3 232 235 189
-0.5 -1 3 247 249 207
2 0.5 3 255 255 217
3 0.5 3 239 242 194
3 1.5 3 247 250 200
2 1.5 3 255 255 218
2.5 1 3 249 250 208
4 0.5 5 247 250 201
5 0.5 5 250 253 204
5 1.5 5 255 255 220
4 1.5 5 255 255 219
4.5 1 5 252 253 211
4 -0.5 6 255 255 239
5 -0.5 6 255 255 239
5 0.5 6 255 255 239
4 0.5 6 255 255 239
4.5 0 6 255 255 239
-2 -1.5 4 199 201 162
-2 -0.5 4 198 200 161
-2 -0.5 5 214 216 174
-2 -1.5 5 213 215 173
-2 -1 4.5 206 208 167
3 -0.5 1 170 172 138
3 0.5 1 161 163 131
3 0.5 2 145 146 117
3 -0.5 2 161 163 131
3 0 1.5 159 161 129
3 -1.5 1 185 187 150
3 -0.5 1 170 172 138
3 -0.5 2 161 163 131
3 -1.5 2 182 184 148
3 -1 1.5 174 176 142
3 0.5 1 161 163 131
3 1.5 1 169 171 137
3 1.5 2 161 163 131
3 0.5 2 145 146 117
3 1 1.5 159 161 129
-2 0.5 3 187 189 152
-2 1.5 3 175 177 142
-2 1.5 4 199 201 162
-2 0.5 4 198 201 161
-2 1 3.5 190 192 154
3 -1.5 0 179 181 146
3 -0.5 0 176 178 143
3 -0.5 1 170 172 138
3 -1.5 1 185 187 150
3 -1 0.5 178 180 144
3 0.5 0 172 174 140
3 1.5 0 172 174 139
3 1.5 1 169 171 137
3 0.5 1 161 163 131
3 1 0.5 168 170 137
-2 -0.5 4 198 200 161
-2 0.5 4 198 201 161
-2 0.5 5 214 216 174
-2 -0.5 5 214 216 174
-2 0 4.5 206 208 167
-2 0.5 4 198 201 161
-2 1.5 4 199 201 162
-2 1.5 5 212 215 173
-2 0.5 5 214 216 174
-2 1 4.5 206 208 167
-3 0.5 5 208 210 169
-3 1.5 5 194 197 158
-3 1.5 6 217 219 176
-3 0.5 6 216 218 175
-3 1 5.5 209 211 170
-3 -1.5 5 196 199 160
-3 -0.5 5 206 209 168
-3 -0.5 6 215 218 175
-3 -1.5 6 216 219 176
-3 -1 5.5 209 211 170
5 -0.5 3 224 226 182
5 0.5 3 223 226 182
5 0.5 4 234 237 190
5 -0.5 4 235 238 191
5 0 3.5 229 232 186
-1 -1.5 0 116 118 94
-1 -0.5 0 89 90 72
-1 -0.5 1 72 73 59
-1 -1.5 1 117 118 95
-1 -1 0.5 99 100 80
-1 0.5 0 84 85 68
-1 1.5 0 103 105 84
-1 1.5 1 104 105 85
-1 0.5 1 68 69 56
-1 1 0.5 90 91 73
-2 -0.5 3 186 189 152
-2 0.5 3 187 189 152
-2 0.5 4 198 201 161
-2 -0.5 4 198 200 161
-2 0 3.5 192 195 156
-2 -1.5 3 178 181 145
-2 -0.5 3 186 189 152
-2 -0.5 4 198 200 161
-2 -1.5 4 199 201 162
-2 -1 3.5 190 193 155
3 -1.5 2 182 184 148
3 -0.5 2 161 163 131
3 -0.5 3 158 160 129
3 -1.5 3 182 184 148
3 -1 2.5 171 173 139
4 -0.5 2 186 188 151
4 0.5 2 176 179 143
4 0.5 3 148 150 120
4 -0.5 3 177 179 144
4 0 2.5 172 174 140
3 0.5 2 145 146 117
3 1.5 2 161 163 131
3 1.5 3 157 159 128
3 0.5 3 138 140 112
3 1 2.5 150 152 122
5 0.5 4 234 237 190
5 1.5 4 234 237 190
5 1.5 5 245 248 199
5 0.5 5 245 248 199
5 1 4.5 240 242 195
5 -0.5 5 245 248 199
5 0.5 5 245 248 199
5 0.5 6 253 255 205
5 -0.5 6 252 255 205
5 0 5.5 249 251 202
2 1.5 1 180 183 147
2 1.5 2 192 195 156
3 1.5 2 193 195 157
3 1.5 1 181 183 147
2.5 1.5 1.5 187 189 152
-3 1.5 3 202 205 164
-3 1.5 4 212 215 173
-2 1.5 4 212 214 172
-2 1.5 3 202 205 164
-2.5 1.5 3.5 207 210 168
2 -0.5 0 84 85 68
2 -0.5 1 65 65 52
3 -0.5 1 92 93 75
3 -0.5 0 104 106 85
2.5 -0.5 0.5 86 87 70
2 1.5 0 168 170 137
2 1.5 1 180 183 147
3 1.5 1 181 183 147
3 1.5 0 169 171 137
2.5 1.5 0.5 175 177 142
1 1.5 1 180 182 146
1 1.5 2 192 194 156
2 1.5 2 192 195 156
2 1.5 1 180 183 147
1.5 1.5 1.5 186 188 151
-3 1.5 4 212 215 173
-3 1.5 5 222 225 181
-2 1.5 5 221 224 180
-2 1.5 4 212 214 172
-2.5 1.5 4.5 217 220 176
-5 1.5 3 204 207 166
-5 1.5 4 215 218 175
-4 1.5 4 214 216 174
-4 1.5 3 203 205 165
-4.5 1.5 3.5 209 211 170
0 1.5 1 180 182 146
0 1.5 2 191 194 155
1 1.5 2 192 194 156
1 1.5 1 180 182 146
0.5 1.5 1.5 186 188 151
-4 1.5 5 223 226 182
-4 1.5 6 230 233 187
-3 1.5 6 230 232 187
-3 1.5 5 222 225 181
-3.5 1.5 5.5 226 229 184
-1 1.5 1 180 182 147
-1 1.5 2 191 194 156
0 1.5 2 191 194 155
0 1.5 1 180 182 146
-0.5 1.5 1.5 186 188 151
-4 -0.5 5 159 161 129
-4 -0.5 6 187 189 152
-3 -0.5 6 184 186 149
-3 -0.5 5 155 157 126
-3.5 -0.5 5.5 171 173 139
4 0.5 3 170 172 138
4 0.5 4 172 174 140
5 0.5 4 176 178 143
5 0.5 3 183 185 149
4.5 0.5 3.5 175 177 142
-2 1.5 1 180 183 147
-2 1.5 2 192 194 156
-1 1.5 2 191 194 156
-1 1.5 1 180 182 147
-1.5 1.5 1.5 186 188 151
-5 1.5 4 215 218 175
-5 1.5 5 225 227 183
-4 1.5 5 223 226 182
-4 1.5 4 214 216 174
-4.5 1.5 4.5 219 222 178
-2 -0.5 0 100 101 81
-2 -0.5 1 92 93 75
-1 -0.5 1 64 65 52
-1 -0.5 0 83 84 67
-1.5 -0.5 0.5 85 86 69
-2 1.5 0 168 170 137
-2 1.5 1 180 183 147
-1 1.5 1 180 182 147
-1 1.5 0 168 170 136
-1.5 1.5 0.5 174 176 142
-4 1.5 3 203 205 165
-4 1.5 4 214 216 174
-3 1.5 4 212 215 173
-3 1.5 3 202 205 164
-3.5 1.5 3.5 208 210 169
-4 1.5 4 214 216 174
-4 1.5 5 223 226 182
-3 1.5 5 222 225 181
-3 1.5 4 212 215 173
-3.5 1.5 4.5 218 221 177
3 0.5 2 145 146 117
3 0.5 3 173 175 141
4 0.5 3 170 172 138
4 0.5 2 161 163 131
3.5 0.5 2.5 162 164 132
-2 1.5 2 192 194 156
-2 1.5 3 202 205 164
-1 1.5 3 202 204 164
-1 1.5 2 191 194 156
-1.5 1.5 2.5 197 199 160
-1 1.5 2 191 194 156
-1 1.5 3 202 204 164
0 1.5 3 202 204 164
0 1.5 2 191 194 155
-0.5 1.5 2.5 197 199 160
0 1.5 2 191 194 155
0 1.5 3 202 204 164
1 1.5 3 202 205 164
1 1.5 2 192 194 156
0.5 1.5 2.5 197 199 160
1 1.5 2 192 194 156
1 1.5 3 202 205 164
2 1.5 3 203 206 165
2 1.5 2 192 195 156
1.5 1.5 2.5 197 200 161
2 1.5 2 192 195 156
2 1.5 3 203 206 165
3 1.5 3 204 207 166
3 1.5 2 193 195 157
2.5 1.5 2.5 198 201 161
4 1.5 4 215 218 175
4 1.5 5 224 227 182
5 1.5 5 225 228 183
5 1.5 4 217 220 177
4.5 1.5 4.5 221 223 179
4 0.5 5 199 201 161
4 0.5 6 222 225 180
5 0.5 6 225 228 183
5 0.5 5 203 205 165
4.5 0.5 5.5 212 215 172
2 -0.5 1 29 29 24
2 0.5 1 29 29 24
3 0.5 1 30 30 24
3 -0.5 1 31 31 25
2.5 0 1 30 30 24
-5 -1.5 3 53 54 43
-5 -0.5 3 51 51 41
-4 -0.5 3 49 50 40
-4 -1.5 3 51 52 42
-4.5 -1 3 51 52 41
-3 0.5 3 46 46 37
-3 1.5 3 48 48 39
-2 1.5 3 45 46 37
-2 0.5 3 44 44 35
-2.5 1 3 46 46 37
2 -1.5 0 27 27 22
2 -0.5 0 27 27 22
3 -0.5 0 27 27 22
3 -1.5 0 27 27 22
2.5 -1 0 27 27 22
2 0.5 0 27 27 22
2 1.5 0 27 27 22
3 1.5 0 27 27 22
3 0.5 0 27 27 22
2.5 1 0 27 27 22
1 -1.5 1 31 31 25
1 -0.5 1 29 30 24
2 -0.5 1 29 29 24
2 -1.5 1 31 32 25
1.5 -1 1 30 31 24
1 -0.5 1 29 30 24
1 0.5 1 29 30 24
2 0.5 1 29 29 24
2 -0.5 1 29 29 24
1.5 0 1 29 30 24
1 0.5 1 29 30 24
1 1.5 1 30 30 24
2 1.5 1 30 30 24
2 0.5 1 29 29 24
1.5 1 1 30 30 24
0 -1.5 1 30 30 24
0 -0.5 1 29 29 24
1 -0.5 1 29 30 24
1 -1.5 1 31 31 25
0.5 -1 1 30 30 24
0 -0.5 1 29 29 24
0 0.5 1 29 29 23
1 0.5 1 29 30 24
1 -0.5 1 29 30 24
0.5 0 1 29 29 24
-5 0.5 3 50 51 41
-5 1.5 3 51 52 42
-4 1.5 3 50 50 40
-4 0.5 3 49 49 39
-4.5 1 3 50 51 41
0 0.5 1 29 29 23
0 1.5 1 30 30 24
1 1.5 1 30 30 24
1 0.5 1 29 30 24
0.5 1 1 29 30 24
-1 -1.5 1 30 31 24
-1 -0.5 1 28 28 23
0 -0.5 1 29 29 24
0 -1.5 1 30 30 24
-0.5 -1 1 29 30 24
-1 -0.5 1 28 28 23
-1 0.5 1 28 28 23
0 0.5 1 29 29 23
0 -0.5 1 29 29 24
-0.5 0 1 28 29 23
-1 0.5 1 28 28 23
-1 1.5 1 30 30 24
0 1.5 1 30 30 24
0 0.5 1 29 29 23
-0.5 1 1 29 29 23
-5 -0.5 3 51 51 41
-5 0.5 3 50 51 41
-4 0.5 3 49 49 39
-4 -0.5 3 49 50 40
-4.5 0 3 50 50 40
4 -0.5 3 48 49 39
4 0.5 3 47 47 38
5 0.5 3 53 54 43
5 -0.5 3 53 54 43
4.5 0 3 51 51 41
-2 -0.5 1 30 31 25
-2 0.5 1 30 30 24
-1 0.5 1 28 28 23
-1 -0.5 1 28 28 23
-1.5 0 1 29 29 24
-2 -1.5 0 27 28 22
-2 -0.5 0 28 28 22
-1 -0.5 0 27 27 22
-1 -1.5 0 27 28 22
-1.5 -1 0 27 28 22
-2 0.5 0 28 28 22
-2 1.5 0 28 28 22
-1 1.5 0 27 28 22
-1 0.5 0 27 27 22
-1.5 1 0 27 28 22
-3 -0.5 3 46 47 37
-3 0.5 3 46 46 37
-2 0.5 3 44 44 35
-2 -0.5 3 44 45 36
-2.5 0 3 45 45 36
-4 -0.5 3 49 50 40
-4 0.5 3 49 49 39
-3 0.5 3 46 46 37
-3 -0.5 3 46 47 37
-3.5 0 3 47 48 38
-4 0.5 3 49 49 39
-4 1.5 3 50 50 40
-3 1.5 3 48 48 39
-3 0.5 3 46 46 37
-3.5 1 3 48 48 39
-4 -1.5 3 51 52 42
-4 -0.5 3 49 50 40
-3 -0.5 3 46 47 37
-3 -1.5 3 49 50 40
-3.5 -1 3 49 49 40
-3 -1.5 3 49 50 40
-3 -0.5 3 46 47 37
-2 -0.5 3 44 45 36
-2 -1.5 3 47 48 38
-2.5 -1 3 47 47 38
3 -0.5 2 39 39 31
3 0.5 2 38 38 31
4 0.5 2 40 40 32
4 -0.5 2 41 41 33
3.5 0 2 39 40 32
4 0.5 4 53 54 43
4 1.5 4 58 58 47
5 1.5 4 63 64 51
5 0.5 4 61 61 49
4.5 1 4 59 59 48
4 -0.5 5 67 68 54
4 0.5 5 62 63 50
5 0.5 5 71 72 58
5 -0.5 5 72 73 58
4.5 0 5 68 69 55
-5 -1.5 3 213 216 173
-5 -1.5 4 223 226 182
-5 -0.5 4 223 226 181
-5 -0.5 3 213 216 173
-5 -1 3.5 218 221 177
-5 -0.5 4 223 226 181
-5 -0.5 5 231 234 188
-5 0.5 5 231 234 188
-5 0.5 4 223 225 181
-5 0 4.5 227 230 185
2 -1.5 0 100 102 82
2 -1.5 1 100 101 81
2 -0.5 1 66 67 54
2 -0.5 0 81 82 66
2 -1 0.5 87 88 71
2 0.5 0 82 83 67
2 0.5 1 68 69 55
2 1.5 1 101 102 82
2 1.5 0 101 103 82
2 1 0.5 88 89 72
-2 -1.5 2 144 146 117
-2 -1.5 3 136 138 111
-2 -0.5 3 108 109 88
-2 -0.5 2 124 125 101
-2 -1 2.5 128 130 104
-5 -1.5 4 223 226 182
-5 -1.5 5 231 234 188
-5 -0.5 5 231 234 188
-5 -0.5 4 223 226 181
-5 -1 4.5 227 230 185
-5 0.5 3 213 216 173
-5 0.5 4 223 225 181
-5 1.5 4 223 226 181
-5 1.5 3 214 216 174
-5 1 3.5 218 221 177
-4 0.5 5 206 208 167
-4 0.5 6 222 224 180
-4 1.5 6 227 229 184
-4 1.5 5 204 206 166
-4 1 5.5 214 217 174
-5 -0.5 3 213 216 173
-5 -0.5 4 223 226 181
-5 0.5 4 223 225 181
-5 0.5 3 213 216 173
-5 0 3.5 218 221 177
-4 -1.5 5 204 207 166
-4 -1.5 6 226 229 184
-4 -0.5 6 222 224 180
-4 -0.5 5 207 209 168
-4 -1 5.5 215 217 175
4 -0.5 3 144 146 117
4 -0.5 4 172 174 140
4 0.5 4 174 176 141
4 0.5 3 145 146 118
4 0 3.5 159 161 129
-2 -1.5 1 154 156 126
-2 -1.5 2 144 146 117
-2 -0.5 2 124 125 101
-2 -0.5 1 145 147 118
-2 -1 1.5 142 144 115
-2 -0.5 1 145 147 118
-2 -0.5 2 124 125 101
-2 0.5 2 124 126 101
-2 0.5 1 144 146 117
-2 0 1.5 134 136 109
-2 0.5 1 144 146 117
-2 0.5 2 124 126 101
-2 1.5 2 143 145 116
-2 1.5 1 152 154 124
-2 1 1.5 141 143 115
-5 0.5 4 223 225 181
-5 0.5 5 231 234 188
-5 1.5 5 232 235 189
-5 1.5 4 223 226 181
-5 1 4.5 227 230 185
-2 -0.5 2 124 125 101
-2 -0.5 3 108 109 88
-2 0.5 3 109 110 89
-2 0.5 2 124 126 101
-2 0 2.5 116 118 94
-2 -1.5 0 152 154 123
-2 -1.5 1 154 156 126
-2 -0.5 1 145 147 118
-2 -0.5 0 148 150 121
-2 -1 0.5 150 152 122
-2 0.5 0 148 150 120
-2 0.5 1 144 146 117
-2 1.5 1 152 154 124
-2 1.5 0 150 152 122
-2 1 0.5 149 150 121
-2 0.5 2 124 126 101
-2 0.5 3 109 110 89
-2 1.5 3 137 138 111
-2 1.5 2 143 145 116
-2 1 2.5 128 130 104
4 0.5 4 174 176 141
4 0.5 5 190 192 154
4 1.5 5 190 192 154
4 1.5 4 176 178 143
4 1 4.5 182 185 148
4 -0.5 5 189 191 153
4 -0.5 6 200 202 162
4 0.5 6 199 201 162
4 0.5 5 190 192 154
4 0 5.5 194 197 158
-3 -1.5 4 222 225 181
-2 -1.5 4 222 225 180
-2 -1.5 5 230 233 187
-3 -1.5 5 231 233 188
-2.5 -1.5 4.5 226 229 184
2 -1.5 1 192 194 156
3 -1.5 1 192 194 156
3 -1.5 2 202 204 164
2 -1.5 2 201 204 164
2.5 -1.5 1.5 197 199 160
-5 -1.5 3 216 219 176
-4 -1.5 3 215 217 175
-4 -1.5 4 223 226 181
-5 -1.5 4 225 228 183
-4.5 -1.5 3.5 220 222 179
0 -1.5 2 201 203 163
1 -1.5 2 201 203 163
1 -1.5 3 212 214 172
0 -1.5 3 211 214 172
0.5 -1.5 2.5 206 209 168
2 -1.5 0 181 183 147
3 -1.5 0 181 183 147
3 -1.5 1 192 194 156
2 -1.5 1 192 194 156
2.5 -1.5 0.5 186 189 152
2 0.5 0 87 88 71
3 0.5 0 110 111 89
3 0.5 1 93 94 76
2 0.5 1 65 66 53
2.5 0.5 0.5 89 90 72
1 -1.5 1 191 194 156
2 -1.5 1 192 194 156
2 -1.5 2 201 204 164
1 -1.5 2 201 203 163
1.5 -1.5 1.5 196 199 160
-2 -1.5 2 202 205 164
-1 -1.5 2 201 204 164
-1 -1.5 3 212 214 172
-2 -1.5 3 213 215 173
-1.5 -1.5 2.5 207 210 168
-5 -1.5 4 225 228 183
-4 -1.5 4 223 226 181
-4 -1.5 5 232 235 189
-5 -1.5 5 234 237 190
-4.5 -1.5 4.5 229 231 186
0 -1.5 1 191 193 155
1 -1.5 1 191 194 156
1 -1.5 2 201 203 163
0 -1.5 2 201 203 163
0.5 -1.5 1.5 196 198 159
-4 0.5 5 171 173 139
-3 0.5 5 168 170 136
-3 0.5 6 195 197 158
-4 0.5 6 198 200 161
-3.5 0.5 5.5 183 185 149
-1 -1.5 1 191 194 156
0 -1.5 1 191 193 155
0 -1.5 2 201 203 163
-1 -1.5 2 201 204 164
-0.5 -1.5 1.5 196 198 159
-4 -1.5 5 232 235 189
-3 -1.5 5 231 233 188
-3 -1.5 6 240 243 195
-4 -1.5 6 241 244 196
-3.5 -1.5 5.5 236 239 192
4 -0.5 3 196 199 160
5 -0.5 3 208 210 169
5 -0.5 4 221 224 180
4 -0.5 4 219 221 178
4.5 -0.5 3.5 211 213 172
-2 -1.5 1 192 194 156
-1 -1.5 1 191 194 156
-1 -1.5 2 201 204 164
-2 -1.5 2 202 205 164
-1.5 -1.5 1.5 197 199 160
-2 -1.5 0 181 183 147
-1 -1.5 0 181 183 147
-1 -1.5 1 191 194 156
-2 -1.5 1 192 194 156
-1.5 -1.5 0.5 186 188 151
-2 0.5 0 103 104 83
-1 0.5 0 84 85 68
-1 0.5 1 63 64 51
-2 0.5 1 92 93 75
-1.5 0.5 0.5 85 87 69
-4 -1.5 4 223 226 181
-3 -1.5 4 222 225 181
-3 -1.5 5 231 233 188
-4 -1.5 5 232 235 189
-3.5 -1.5 4.5 227 230 185
-4 -1.5 3 215 217 175
-3 -1.5 3 214 216 174
-3 -1.5 4 222 225 181
-4 -1.5 4 223 226 181
-3.5 -1.5 3.5 218 221 178
-3 -1.5 3 214 216 174
-2 -1.5 3 213 215 173
-2 -1.5 4 222 225 180
-3 -1.5 4 222 225 181
-2.5 -1.5 3.5 218 220 177
1 -1.5 2 201 203 163
2 -1.5 2 201 204 164
2 -1.5 3 212 215 173
1 -1.5 3 212 214 172
1.5 -1.5 2.5 206 209 168
2 -1.5 2 201 204 164
3 -1.5 2 202 204 164
3 -1.5 3 213 215 173
2 -1.5 3 212 215 173
2.5 -1.5 2.5 207 209 168
3 -0.5 2 155 157 126
4 -0.5 2 172 174 140
4 -0.5 3 196 199 160
3 -0.5 3 192 195 156
3.5 -0.5 2.5 179 181 146
-1 -1.5 2 201 204 164
0 -1.5 2 201 203 163
0 -1.5 3 211 214 172
-1 -1.5 3 212 214 172
-0.5 -1.5 2.5 206 209 168
4 0.5 4 161 163 131
5 0.5 4 173 175 141
5 0.5 5 180 182 146
4 0.5 5 173 175 140
4.5 0.5 4.5 172 174 139
4 -0.5 5 229 232 186
5 -0.5 5 231 234 188
5 -0.5 6 238 241 194
4 -0.5 6 237 240 192
4.5 -0.5 5.5 234 237 190
3 4 0 1
3 4 1 2
3 4 2 3
3 4 3 0
3 9 5 6
3 9 6 7
3 9 7 8
3 9 8 5
3 14 10 11
3 14 11 12
3 14 12 13
3 14 13 10
3 19 15 16
3 19 16 17
3 19 17 18
3 19 18 15
3 24 20 21
3 24 21 22
3 24 22 23
3 24 23 20
3 29 25 26
3 29 26 27
3 29 27 28
3 29 28 25
3 34 30 31
3 34 31 32
3 34 32 33
3 34 33 30
3 39 35 36
3 39 36 37
3 39 37 38
3 39 38 35
3 44 40 41
3 44 41 42
3 44 42 43
3 44 43 40
3 49 45 46
3 49 46 47
3 49 47 48
3 49 48 45
3 54 50 51
3 54 51 52
3 54 52 53
3 54 53 50
3 59 55 56
3 59 56 57
3 59 57 58
3 59 58 55
3 64 60 61
3 64 61 62
3 64 62 63
3 64 63 60
3 69 65 66
3 69 66 67
3 69 67 68
3 69 68 65
3 74 70 71
3 74 71 72
3 74 72 73
3 74 73 70
3 79 75 76
3 79 76 77
3 79 77 78
3 79 78 75
3 84 80 81
3 84 81 82
3 84 82 83
3 84 83 80
3 89 85 86
3 89 86 87
3 89 87 88
3 89 88 85
3 94 90 91
3 94 91 92
3 94 92 93
3 94 93 90
3 99 95 96
3 99 96 97
3 99 97 98
3 99 98 95
3 104 100 101
3 104 101 102
3 104 102 103
3 104 103 100
3 109 105 106
3 109 106 107
3 109 107 108
3 109 108 105
3 114 110 111
3 114 111 112
3 114 112 113
3 114 113 110
3 119 115 116
3 119 116 117
3 119 117 118
3 119 118 115
3 124 120 121
3 124 121 122
3 124 122 123
3 124 123 120
3 129 125 126
3 129 126 127
3 129 127 128
3 129 128 125
3 134 130 131
3 134 131 132
3 134 132 133
3 134 133 130
3 139 135 136
3 139 136 137
3 139 137 138
3 139 138 135
3 144 140 141
3 144 141 142
3 144 142 143
3 144 143 140
3 149 145 146
3 149 146 147
3 149 147 148
3 149 148 145
3 154 150 151
3 154 151 152
3 154 152 153
3 154 153 150
3 159 155 156
3 159 156 157
3 159 157 158
3 159 158 155
3 164 160 161
3 164 161 162
3 164 162 163
3 164 163 160
3 169 165 166
3 169 166 167
3 169 167 168
3 169 168 165
3 174 170 171
3 174 171 172
3 174 172 173
3 174 173 170
3 179 175 176
3 179 176 177
3 179 177 178
3 179 178 175
3 184 180 181
3 184 181 182
3 184 182 183
3 184 183 180
3 189 185 186
3 189 186 187
3 189 187 188
3 189 188 185
3 194 190 191
3 194 191 192
3 194 192 193
3 194 193 190
3 199 195 196
3 199 196 197
3 199 197 198
3 199 198 195
3 204 200 201
3 204 201 202
3 204 202 203
3 204 203 200
3 209 205 206
3 209 206 207
3 209 207 208
3 209 208 205
3 214 210 211
3 214 211 212
3 214 212 213
3 214 213 210
3 219 215 216
3 219 216 217
3 219 217 218
3 219 218 215
3 224 220 221
3 224 221 222
3 224 222 223
3 224 223 220
3 229 225 226
3 229 226 227
3 229 227 228
3 229 228 225
3 234 230 231
3 234 231 232
3 234 232 233
3 234 233 230
3 239 235 236
3 239 236 237
3 239 237 238
3 239 238 235
3 244 240 241
3 244 241 242
3 244 242 243
3 244 243 240
3 249 245 246
3 249 246 247
3 249 247 248
3 249 248 245
3 254 250 251
3 254 251 252
3 254 252 253
3 254 253 250
3 259 255 256
3 259 256 257
3 259 257 258
3 259 258 255
3 264 260 261
3 264 261 262
3 264 262 263
3 264 263 260
3 269 265 266
3 269 266 267
3 269 267 268
3 269 268 265
3 274 270 271
3 274 271 272
3 274 272 273
3 274 273 270
3 279 275 276
3 279 276 277
3 279 277 278
3 279 278 275
3 284 280 281
3 284 281 282
3 284 282 283
3 284 283 280
3 289 285 286
3 289 286 287
3 289 287 288
3 289 288 285
3 294 290 291
3 294 291 292
3 294 292 293
3 294 293 290
3 299 295 296
3 299 296 297
3 299 297 298
3 299 298 295
3 304 300 301
3 304 301 302
3 304 302 303
3 304 303 300
3 309 305 306
3 309 306 307
3 309 307 308
3 309 308 305
3 314 310 311
3 314 311 312
3 314 312 313
3 314 313 310
3 319 315 316
3 319 316 317
3 319 317 318
3 319 318 315
3 324 320 321
3 324 321 322
3 324 322 323
3 324 323 320
3 329 325 326
3 329 326 327
3 329 327 328
3 329 328 325
3 334 330 331
3 334 331 332
3 334 332 333
3 334 333 330
3 339 335 336
3 339 336 337
3 339 337 338
3 339 338 335
3 344 340 341
3 344 341 342
3 344 342 343
3 344 343 340
3 349 345 346
3 349 346 347
3 349 347 348
3 349 348 345
3 354 350 351
3 354 351 352
3 354 352 353
3 354 353 350
3 359 355 356
3 359 356 357
3 359 357 358
3 359 358 355
3 364 360 361
3 364 361 362
3 364 362 363
3 364 363 360
3 369 365 366
3 369 366 367
3 369 367 368
3 369 368 365
3 374 370 371
3 374 371 372
3 374 372 373
3 374 373 370
3 379 375 376
3 379 376 377
3 379 377 378
3 379 378 375
3 384 380 381
3 384 381 382
3 384 382 383
3 384 383 380
3 389 385 386
3 389 386 387
3 389 387 388
3 389 388 385
3 394 390 391
3 394 391 392
3 394 392 393
3 394 393 390
3 399 395 396
3 399 396 397
3 399 397 398
3 399 398 395
3 404 400 401
3 404 401 402
3 404 402 403
3 404 403 400
3 409 405 406
3 409 406 407
3 409 407 408
3 409 408 405
3 414 410 411
3 414 411 412
3 414 412 413
3 414 413 410
3 419 415 416
3 419 416 417
3 419 417 418
3 419 418 415
3 424 420 421
3 424 421 422
3 424 422 423
3 424 423 420
3 429 425 426
3 429 426 427
3 429 427 428
3 429 428 425
3 434 430 431
3 434 431 432
3 434 432 433
3 434 433 430
3 439 435 436
3 439 436 437
3 439 437 438
3 439 438 435
3 444 440 441
3 444 441 442
3 444 442 443
3 444 443 440
3 449 445 446
3 449 446 447
3 449 447 448
3 449 448 445
3 454 450 451
3 454 451 452
3 454 452 453
3 454 453 450
3 459 455 456
3 459 456 457
3 459 457 458
3 459 458 455
3 464 460 461
3 464 461 462
3 464 462 463
3 464 463 460
3 469 465 466
3 469 466 467
3 469 467 468
3 469 468 465
3 474 470 471
3 474 471 472
3 474 472 473
3 474 473 470
3 479 475 476
3 479 476 477
3 479 477 478
3 479 478 475
3 484 480 481
3 484 481 482
3 484 482 483
3 484 483 480
3 489 485 486
3 489 486 487
3 489 487 488
3 489 488 485
3 494 490 491
3 494 491 492
3 494 492 493
3 494 493 490
3 499 495 496
3 499 496 497
3 499 497 498
3 499 498 495
3 504 500 501
3 504 501 502
3 504 502 503
3 504 503 500
3 509 505 506
3 509 506 507
3 509 507 508
3 509 508 505
3 514 510 511
3 514 511 512
3 514 512 513
3 514 513 510
3 519 515 516
3 519 516 517
3 519 517 518
3 519 518 515
3 524 520 521
3 524 521 522
3 524 522 523
3 524 523 520
3 529 525 526
3 529 526 527
3 529 527 528
3 529 528 525
3 534 530 531
3 534 531 532
3 534 532 533
3 534 533 530
3 539 535 536
3 539 536 537
3 539 537 538
3 539 538 535
3 544 540 541
3 544 541 542
3 544 542 543
3 544 543 540
3 549 545 546
3 549 546 547
3 549 547 548
3 549 548 545
3 554 550 551
3 554 551 552
3 554 552 553
3 554 553 550
3 559 555 556
3 559 556 557
3 559 557 558
3 559 558 555
3 564 560 561
3 564 561 562
3 564 562 563
3 564 563 560
3 569 565 566
3 569 566 567
3 569 567 568
3 569 568 565
3 574 570 571
3 574 571 572
3 574 572 573
3 574 573 570
3 579 575 576
3 579 576 577
3 579 577 578
3 579 578 575
3 584 580 581
3 584 581 582
3 584 582 583
3 584 583 580
3 589 585 586
3 589 586 587
3 589 587 588
3 589 588 585
3 594 590 591
3 594 591 592
3 594 592 593
3 594 593 590
3 599 595 596
3 599 596 597
3 599 597 598
3 599 598 595
3 604 600 601
3 604 601 602
3 604 602 603
3 604 603 600
3 609 605 606
3 609 606 607
3 609 607 608
3 609 608 605
3 614 610 611
3 614 611 612
3 614 612 613
3 614 613 610
3 619 615 616
3 619 616 617
3 619 617 618
3 619 618 615
3 624 620 621
3 624 621 622
3 624 622 623
3 624 623 620
3 629 625 626
3 629 626 627
3 629 627 628
3 629 628 625
3 634 630 631
3 634 631 632
3 634 632 633
3 634 633 630
3 639 635 636
3 639 636 637
3 639 637 638
3 639 638 635
3 644 640 641
3 644 641 642
3 644 642 643
3 644 643 640
3 649 645 646
3 649 646 647
3 649 647 648
3 649 648 645
3 654 650 651
3 654 651 652
3 654 652 653
3 654 653 650
3 659 655 656
3 659 656 657
3 659 657 658
3 659 658 655
3 664 660 661
3 664 661 662
3 664 662 663
3 664 663 660
3 669 665 666
3 669 666 667
3 669 667 668
3 669 668 665
3 674 670 671
3 674 671 672
3 674 672 673
3 674 673 670
3 679 675 676
3 679 676 677
3 679 677 678
3 679 678 675
3 684 680 681
3 684 681 682
3 684 682 683
3 684 683 680
3 689 685 686
3 689 686 687
3 689 687 688
3 689 688 685
3 694 690 691
3 694 691 692
3 694 692 693
3 694 693 690
3 699 695 696
3 699 696 697
3 699 697 698
3 699 698 695
3 704 700 701
3 704 701 702
3 704 702 703
3 704 703 700
3 709 705 706
3 709 706 707
3 709 707 708
3 709 708 705
3 714 710 711
3 714 711 712
3 714 712 713
3 714 713 710
3 719 715 716
3 719 716 717
3 719 717 718
3 719 718 715
3 724 720 721
3 724 721 722
3 724 722 723
3 724 723 720
3 729 725 726
3 729 726 727
3 729 727 728
3 729 728 725
3 734 730 731
3 734 731 732
3 734 732 733
3 734 733 730
3 739 735 736
3 739 736 737
3 739 737 738
3 739 738 735
3 744 740 741
3 744 741 742
3 744 742 743
3 744 743 740
3 749 745 746
3 749 746 747
3 749 747 748
3 749 748 745
