ply
format ascii 1.0
comment : 
comment : MagicaVoxel @ ephtracy
element vertex 1030
property float x
property float y
property float z
property uchar red
property uchar green
property uchar blue
element face 824
property list uchar int vertex_index
end_header
-3.5 -0.5 3 255 255 203
-2.5 -0.5 3 255 255 203
-2.5 0.5 3 255 255 203
-3.5 0.5 3 255 255 203
-3 0 3 255 255 203
-2.5 -1.5 2 180 175 122
-1.5 -1.5 2 201 196 137
-1.5 -0.5 2 229 224 156
-2.5 -0.5 2 205 200 140
-2 -1 2 204 199 139
-1.5 2.5 3 255 255 203
-0.5 2.5 3 255 255 203
-0.5 3.5 3 255 255 203
-1.5 3.5 3 255 255 203
-1 3 3 255 255 203
2.5 0.5 3 255 255 203
3.5 0.5 3 255 255 203
3.5 1.5 3 255 255 203
2.5 1.5 3 255 255 203
3 1 3 255 255 203
0.5 2.5 3 255 255 203
1.5 2.5 3 255 255 203
1.5 3.5 3 255 255 203
0.5 3.5 3 255 255 203
1 3 3 255 255 203
-2.5 2.5 3 255 255 203
-1.5 2.5 3 255 255 203
-1.5 3.5 3 255 255 203
-2.5 3.5 3 255 255 203
-2 3 3 255 255 203
-0.5 -1.5 1 147 143 100
0.5 -1.5 1 144 140 98
0.5 -0.5 1 178 174 122
-0.5 -0.5 1 183 179 125
0 -1 1 163 159 111
0.5 -2.5 2 197 192 134
1.5 -2.5 2 174 170 118
1.5 -1.5 2 199 194 136
0.5 -1.5 2 226 221 154
1 -2 2 199 194 136
-0.5 -2.5 1 104 101 71
0.5 -2.5 1 104 101 71
0.5 -1.5 1 144 140 98
-0.5 -1.5 1 147 143 100
0 -2 1 124 121 85
2.5 -1.5 3 255 255 203
3.5 -1.5 3 255 255 203
3.5 -0.5 3 255 255 203
2.5 -0.5 3 255 255 203
3 -1 3 255 255 203
1.5 2.5 3 255 255 203
2.5 2.5 3 255 255 203
2.5 3.5 3 255 255 203
1.5 3.5 3 255 255 203
2 3 3 255 255 203
-1.5 -1.5 1 154 150 105
-0.5 -1.5 1 147 143 100
-0.5 -0.5 1 183 179 125
-1.5 -0.5 1 151 147 103
-1 -1 1 159 155 108
0.5 -1.5 1 144 140 98
1.5 -1.5 1 145 142 99
1.5 -0.5 1 142 138 97
0.5 -0.5 1 178 174 122
1 -1 1 152 149 104
-3.5 1.5 3 255 255 203
-2.5 1.5 3 255 255 203
-2.5 2.5 3 255 255 203
-3.5 2.5 3 255 255 203
-3 2 3 255 255 203
2.5 -2.5 3 255 255 203
3.5 -2.5 3 255 255 203
3.5 -1.5 3 255 255 203
2.5 -1.5 3 255 255 203
3 -2 3 255 255 203
-2.5 -0.5 1 109 107 75
-1.5 -0.5 1 151 147 103
-1.5 0.5 1 153 149 104
-2.5 0.5 1 109 107 75
-2 0 1 131 128 89
-1.5 -0.5 1 151 147 103
-0.5 -0.5 1 183 179 125
-0.5 0.5 1 187 182 127
-1.5 0.5 1 153 149 104
-1 0 1 168 164 115
-0.5 -0.5 1 183 179 125
0.5 -0.5 1 178 174 122
0.5 0.5 1 182 177 124
-0.5 0.5 1 187 182 127
0 0 1 182 178 124
0.5 -0.5 1 178 174 122
1.5 -0.5 1 142 138 97
1.5 0.5 1 144 140 98
0.5 0.5 1 182 177 124
1 0 1 161 158 110
1.5 -0.5 1 142 138 97
2.5 -0.5 1 102 99 69
2.5 0.5 1 102 99 69
1.5 0.5 1 144 140 98
2 0 1 122 119 83
-0.5 2.5 3 255 255 203
0.5 2.5 3 255 255 203
0.5 3.5 3 255 255 203
-0.5 3.5 3 255 255 203
0 3 3 255 255 203
0.5 -3.5 3 255 255 203
1.5 -3.5 3 255 255 203
1.5 -2.5 3 255 255 203
0.5 -2.5 3 255 255 203
1 -3 3 255 255 203
-1.5 0.5 1 153 149 104
-0.5 0.5 1 187 182 127
-0.5 1.5 1 154 151 105
-1.5 1.5 1 160 156 109
-1 1 1 163 159 111
-0.5 0.5 1 187 182 127
0.5 0.5 1 182 177 124
0.5 1.5 1 151 148 103
-0.5 1.5 1 154 151 105
0 1 1 168 164 115
0.5 0.5 1 182 177 124
1.5 0.5 1 144 140 98
1.5 1.5 1 151 148 103
0.5 1.5 1 151 148 103
1 1 1 157 153 107
1.5 -3.5 3 255 255 203
2.5 -3.5 3 255 255 203
2.5 -2.5 3 255 255 203
1.5 -2.5 3 255 255 203
2 -3 3 255 255 203
-0.5 1.5 1 154 151 105
0.5 1.5 1 151 148 103
0.5 2.5 1 113 111 77
-0.5 2.5 1 113 111 77
0 2 1 133 130 91
-2.5 1.5 2 185 181 126
-1.5 1.5 2 207 202 141
-1.5 2.5 2 186 182 127
-2.5 2.5 2 167 163 114
-2 2 2 186 182 127
1.5 -1.5 2 199 194 136
2.5 -1.5 2 175 171 119
2.5 -0.5 2 198 193 135
1.5 -0.5 2 226 221 154
2 -1 2 199 195 136
-2.5 0.5 2 206 201 140
-1.5 0.5 2 230 225 157
-1.5 1.5 2 207 202 141
-2.5 1.5 2 185 181 126
-2 1 2 207 202 141
-1.5 -3.5 3 255 255 203
-0.5 -3.5 3 255 255 203
-0.5 -2.5 3 255 255 203
-1.5 -2.5 3 255 255 203
-1 -3 3 255 255 203
-0.5 -3.5 3 255 255 203
0.5 -3.5 3 255 255 203
0.5 -2.5 3 255 255 203
-0.5 -2.5 3 255 255 203
0 -3 3 255 255 203
-2.5 -3.5 3 255 255 203
-1.5 -3.5 3 255 255 203
-1.5 -2.5 3 255 255 203
-2.5 -2.5 3 255 255 203
-2 -3 3 255 255 203
-3.5 -1.5 3 255 255 203
-2.5 -1.5 3 255 255 203
-2.5 -0.5 3 255 255 203
-3.5 -0.5 3 255 255 203
-3 -1 3 255 255 203
1.5 1.5 2 202 197 138
2.5 1.5 2 176 172 120
2.5 2.5 2 159 155 108
1.5 2.5 2 182 177 124
2 2 2 180 175 122
0.5 1.5 2 231 226 158
1.5 1.5 2 202 197 138
1.5 2.5 2 182 177 124
0.5 2.5 2 207 202 141
1 2 2 206 201 140
-1.5 1.5 2 207 202 141
-0.5 1.5 2 231 226 158
-0.5 2.5 2 207 203 141
-1.5 2.5 2 186 182 127
-1 2 2 208 203 142
2.5 -0.5 3 255 255 203
3.5 -0.5 3 255 255 203
3.5 0.5 3 255 255 203
2.5 0.5 3 255 255 203
3 0 3 255 255 203
-3.5 0.5 3 255 255 203
-2.5 0.5 3 255 255 203
-2.5 1.5 3 255 255 203
-3.5 1.5 3 255 255 203
-3 1 3 255 255 203
-3.5 -2.5 3 255 255 203
-2.5 -2.5 3 255 255 203
-2.5 -1.5 3 255 255 203
-3.5 -1.5 3 255 255 203
-3 -2 3 255 255 203
-2.5 -2.5 2 157 154 107
-1.5 -2.5 2 176 171 120
-1.5 -1.5 2 201 196 137
-2.5 -1.5 2 180 175 122
-2 -2 2 178 174 122
-1.5 -2.5 2 176 171 120
-0.5 -2.5 2 197 192 134
-0.5 -1.5 2 226 220 154
-1.5 -1.5 2 201 196 137
-1 -2 2 200 195 136
1.5 0.5 2 225 220 154
2.5 0.5 2 196 192 134
2.5 1.5 2 176 172 120
1.5 1.5 2 202 197 138
2 1 2 200 195 136
2.5 1.5 3 255 255 203
3.5 1.5 3 255 255 203
3.5 2.5 3 255 255 203
2.5 2.5 3 255 255 203
3 2 3 255 255 203
1.5 -2.5 2 174 170 118
2.5 -2.5 2 154 150 105
2.5 -1.5 2 175 171 119
1.5 -1.5 2 199 194 136
2 -2 2 175 171 120
-2.5 -0.5 2 129 126 88
-2.5 0.5 2 128 125 87
-2.5 0.5 3 165 161 112
-2.5 -0.5 3 166 162 113
-2.5 0 2.5 147 143 100
-1.5 -1.5 1 94 92 64
-1.5 -0.5 1 101 99 69
-1.5 -0.5 2 124 121 84
-1.5 -1.5 2 121 118 82
-1.5 -1 1.5 110 107 75
3.5 0.5 2 226 221 154
3.5 1.5 2 227 221 155
3.5 1.5 3 240 234 164
3.5 0.5 3 239 233 163
3.5 1 2.5 233 227 159
2.5 -2.5 0 180 176 123
2.5 -1.5 0 160 156 109
2.5 -1.5 1 140 137 96
2.5 -2.5 1 169 165 115
2.5 -2 0.5 162 159 111
3.5 -1.5 2 227 222 155
3.5 -0.5 2 226 221 154
3.5 -0.5 3 239 234 163
3.5 -1.5 3 240 235 164
3.5 -1 2.5 233 228 159
2.5 2.5 2 158 154 108
2.5 3.5 2 200 196 136
2.5 3.5 3 223 217 152
2.5 2.5 3 214 209 146
2.5 3 2.5 199 194 135
2.5 -1.5 0 160 156 109
2.5 -0.5 0 142 139 97
2.5 -0.5 1 123 120 84
2.5 -1.5 1 140 137 96
2.5 -1 0.5 141 138 96
-2.5 1.5 2 137 134 94
-2.5 2.5 2 129 126 88
-2.5 2.5 3 172 168 117
-2.5 1.5 3 161 157 110
-2.5 2 2.5 150 146 102
3.5 -2.5 2 229 223 156
3.5 -1.5 2 227 222 155
3.5 -1.5 3 240 235 164
3.5 -2.5 3 242 236 165
3.5 -2 2.5 234 229 160
2.5 -0.5 0 142 139 97
2.5 0.5 0 139 135 94
2.5 0.5 1 119 117 81
2.5 -0.5 1 123 120 84
2.5 0 0.5 131 128 89
2.5 0.5 0 139 135 94
2.5 1.5 0 151 147 103
2.5 1.5 1 130 127 89
2.5 0.5 1 119 117 81
2.5 1 0.5 135 132 92
2.5 -3.5 2 206 201 140
2.5 -2.5 2 167 163 114
2.5 -2.5 3 215 210 147
2.5 -3.5 3 223 218 152
2.5 -3 2.5 203 198 138
1.5 2.5 1 118 115 80
1.5 3.5 1 145 142 99
1.5 3.5 2 154 150 105
1.5 2.5 2 107 104 73
1.5 3 1.5 131 128 89
2.5 1.5 0 151 147 103
2.5 2.5 0 171 167 116
2.5 2.5 1 158 154 108
2.5 1.5 1 130 127 89
2.5 2 0.5 152 149 104
-2.5 -0.5 1 90 88 61
-2.5 0.5 1 90 88 61
-2.5 0.5 2 128 125 87
-2.5 -0.5 2 129 126 88
-2.5 0 1.5 109 106 74
-1.5 0.5 1 106 103 72
-1.5 1.5 1 103 100 70
-1.5 1.5 2 125 122 85
-1.5 0.5 2 125 122 85
-1.5 1 1.5 115 112 78
-2.5 -1.5 2 136 133 93
-2.5 -0.5 2 129 126 88
-2.5 -0.5 3 166 162 113
-2.5 -1.5 3 161 157 109
-2.5 -1 2.5 148 145 101
3.5 -1.5 1 213 208 145
3.5 -0.5 1 213 208 145
3.5 -0.5 2 226 221 154
3.5 -1.5 2 227 222 155
3.5 -1 1.5 220 215 150
3.5 -0.5 1 213 208 145
3.5 0.5 1 213 208 145
3.5 0.5 2 226 221 154
3.5 -0.5 2 226 221 154
3.5 0 1.5 219 214 150
3.5 0.5 1 213 208 145
3.5 1.5 1 213 208 145
3.5 1.5 2 227 221 155
3.5 0.5 2 226 221 154
3.5 1 1.5 220 214 150
2.5 1.5 1 130 127 89
2.5 2.5 1 158 154 108
2.5 2.5 2 158 154 108
2.5 1.5 2 112 109 76
2.5 2 1.5 139 136 95
-0.5 1.5 1 90 88 61
-0.5 2.5 1 85 83 58
-0.5 2.5 2 105 103 72
-0.5 1.5 2 112 109 76
-0.5 2 1.5 98 96 67
3.5 -0.5 2 226 221 154
3.5 0.5 2 226 221 154
3.5 0.5 3 239 233 163
3.5 -0.5 3 239 234 163
3.5 0 2.5 233 227 159
1.5 -3.5 1 158 154 108
1.5 -2.5 1 130 127 89
1.5 -2.5 2 116 114 79
1.5 -3.5 2 165 161 112
1.5 -3 1.5 142 139 97
-2.5 0.5 2 128 125 87
-2.5 1.5 2 137 134 94
-2.5 1.5 3 161 157 110
-2.5 0.5 3 165 161 112
-2.5 1 2.5 148 144 101
-2.5 -2.5 2 124 121 84
-2.5 -1.5 2 136 133 93
-2.5 -1.5 3 161 157 109
-2.5 -2.5 3 170 166 116
-2.5 -2 2.5 148 144 101
-0.5 -2.5 1 68 67 46
-0.5 -1.5 1 81 79 55
-0.5 -1.5 2 106 103 72
-0.5 -2.5 2 93 91 63
-0.5 -2 1.5 87 85 59
3.5 1.5 2 227 221 155
3.5 2.5 2 228 223 155
3.5 2.5 3 242 236 165
3.5 1.5 3 240 234 164
3.5 2 2.5 234 229 160
2.5 -2.5 1 169 165 115
2.5 -1.5 1 140 137 96
2.5 -1.5 2 120 117 81
2.5 -2.5 2 167 163 114
2.5 -2 1.5 149 146 102
-2.5 -0.5 1 67 65 45
-2.5 -0.5 2 86 84 59
-1.5 -0.5 2 95 92 64
-1.5 -0.5 1 74 72 50
-2 -0.5 1.5 80 78 55
-1.5 3.5 2 218 213 149
-1.5 3.5 3 231 226 158
-0.5 3.5 3 231 226 158
-0.5 3.5 2 218 213 149
-1 3.5 2.5 225 219 153
0.5 3.5 2 218 213 149
0.5 3.5 3 231 226 158
1.5 3.5 3 231 226 158
1.5 3.5 2 218 213 149
1 3.5 2.5 225 219 153
-2.5 3.5 2 219 214 149
-2.5 3.5 3 233 227 159
-1.5 3.5 3 231 226 158
-1.5 3.5 2 218 213 149
-2 3.5 2.5 225 220 154
0.5 -1.5 1 89 87 61
0.5 -1.5 2 110 108 75
1.5 -1.5 2 109 107 74
1.5 -1.5 1 86 84 59
1 -1.5 1.5 99 96 67
1.5 3.5 2 218 213 149
1.5 3.5 3 231 226 158
2.5 3.5 3 233 228 159
2.5 3.5 2 220 214 150
2 3.5 2.5 226 220 154
-0.5 3.5 1 200 196 137
-0.5 3.5 2 218 213 149
0.5 3.5 2 218 213 149
0.5 3.5 1 201 196 137
0 3.5 1.5 209 205 143
-3.5 2.5 2 192 188 131
-3.5 2.5 3 212 207 145
-2.5 2.5 3 205 200 140
-2.5 2.5 2 160 157 109
-3 2.5 2.5 193 188 131
-0.5 3.5 2 218 213 149
-0.5 3.5 3 231 226 158
0.5 3.5 3 231 226 158
0.5 3.5 2 218 213 149
0 3.5 2.5 225 219 153
0.5 -2.5 2 113 110 77
0.5 -2.5 3 149 146 102
1.5 -2.5 3 145 141 99
1.5 -2.5 2 122 119 83
1 -2.5 2.5 132 129 90
1.5 -2.5 2 122 119 83
1.5 -2.5 3 145 141 99
2.5 -2.5 3 155 151 106
2.5 -2.5 2 112 110 77
2 -2.5 2.5 133 130 91
0.5 3.5 1 201 196 137
0.5 3.5 2 218 213 149
1.5 3.5 2 218 213 149
1.5 3.5 1 202 198 138
1 3.5 1.5 210 205 143
-2.5 2.5 0 168 164 114
-2.5 2.5 1 160 156 109
-1.5 2.5 1 139 135 94
-1.5 2.5 0 153 150 104
-2 2.5 0.5 155 151 106
-1.5 2.5 0 153 150 104
-1.5 2.5 1 139 135 94
-0.5 2.5 1 125 122 85
-0.5 2.5 0 141 138 96
-1 2.5 0.5 139 136 95
-0.5 2.5 0 141 138 96
-0.5 2.5 1 125 122 85
0.5 2.5 1 123 121 84
0.5 2.5 0 141 138 96
0 2.5 0.5 133 129 90
0.5 2.5 0 141 138 96
0.5 2.5 1 123 121 84
1.5 2.5 1 136 133 92
1.5 2.5 0 153 149 104
1 2.5 0.5 138 135 94
1.5 2.5 0 153 149 104
1.5 2.5 1 136 133 92
2.5 2.5 1 160 156 109
2.5 2.5 0 167 163 114
2 2.5 0.5 154 150 105
-2.5 2.5 1 160 156 109
-2.5 2.5 2 160 157 109
-1.5 2.5 2 123 120 84
-1.5 2.5 1 139 135 94
-2 2.5 1.5 146 142 99
1.5 -0.5 1 75 73 51
1.5 -0.5 2 96 93 65
2.5 -0.5 2 87 85 59
2.5 -0.5 1 66 65 45
2 -0.5 1.5 81 79 55
-1.5 -2.5 2 119 116 81
-1.5 -2.5 3 144 140 98
-0.5 -2.5 3 149 145 101
-0.5 -2.5 2 113 110 77
-1 -2.5 2.5 131 128 89
-0.5 -2.5 2 113 110 77
-0.5 -2.5 3 149 145 101
0.5 -2.5 3 149 146 102
0.5 -2.5 2 113 110 77
0 -2.5 2.5 131 128 89
-2.5 -2.5 2 109 106 74
-2.5 -2.5 3 154 150 105
-1.5 -2.5 3 144 140 98
-1.5 -2.5 2 119 116 81
-2 -2.5 2.5 131 128 90
-1.5 3.5 1 200 196 137
-1.5 3.5 2 218 213 149
-0.5 3.5 2 218 213 149
-0.5 3.5 1 200 196 137
-1 3.5 1.5 209 204 143
-3.5 1.5 1 147 144 100
-3.5 1.5 2 155 151 105
-2.5 1.5 2 116 113 79
-2.5 1.5 1 126 123 86
-3 1.5 1.5 136 133 93
2.5 1.5 1 123 120 84
2.5 1.5 2 113 110 77
3.5 1.5 2 153 150 105
3.5 1.5 1 147 143 100
3 1.5 1.5 134 131 91
1.5 2.5 1 136 133 92
1.5 2.5 2 117 114 80
2.5 2.5 2 158 154 107
2.5 2.5 1 160 156 109
2 2.5 1.5 142 139 97
-0.5 -2.5 1 75 74 51
-0.5 -2.5 2 113 110 77
0.5 -2.5 2 113 110 77
0.5 -2.5 1 75 74 51
0 -2.5 1.5 94 92 64
-1.5 -1.5 1 82 80 56
-1.5 -1.5 2 107 104 73
-0.5 -1.5 2 109 107 74
-0.5 -1.5 1 87 85 59
-1 -1.5 1.5 96 94 66
2.5 2.5 2 158 154 107
2.5 2.5 3 205 200 140
3.5 2.5 3 213 208 145
3.5 2.5 2 193 189 132
3 2.5 2.5 192 188 131
-2.5 2.5 2 46 45 31
-2.5 3.5 2 52 50 35
-1.5 3.5 2 50 49 34
-1.5 2.5 2 44 43 30
-2 3 2 48 47 32
-0.5 -1.5 0 29 28 20
-0.5 -0.5 0 29 28 20
0.5 -0.5 0 29 29 20
0.5 -1.5 0 29 29 20
0 -1 0 29 29 20
-2.5 -2.5 0 31 31 21
-2.5 -1.5 0 31 30 21
-1.5 -1.5 0 30 29 20
-1.5 -2.5 0 30 29 20
-2 -2 0 30 30 21
-1.5 -2.5 0 30 29 20
-1.5 -1.5 0 30 29 20
-0.5 -1.5 0 29 28 20
-0.5 -2.5 0 29 29 20
-1 -2 0 30 29 20
-0.5 -2.5 0 29 29 20
-0.5 -1.5 0 29 28 20
0.5 -1.5 0 29 29 20
0.5 -2.5 0 29 29 20
0 -2 0 29 29 20
0.5 -2.5 0 29 29 20
0.5 -1.5 0 29 29 20
1.5 -1.5 0 29 29 20
1.5 -2.5 0 30 29 20
1 -2 0 30 29 20
1.5 -2.5 0 30 29 20
1.5 -1.5 0 29 29 20
2.5 -1.5 0 30 30 21
2.5 -2.5 0 31 31 21
2 -2 0 30 30 21
1.5 2.5 2 45 44 31
1.5 3.5 2 51 50 35
2.5 3.5 2 54 52 36
2.5 2.5 2 48 47 32
2 3 2 49 48 34
-2.5 -1.5 0 31 30 21
-2.5 -0.5 0 30 30 21
-1.5 -0.5 0 30 29 20
-1.5 -1.5 0 30 29 20
-2 -1 0 30 29 20
-1.5 -1.5 0 30 29 20
-1.5 -0.5 0 30 29 20
-0.5 -0.5 0 29 28 20
-0.5 -1.5 0 29 28 20
-1 -1 0 29 29 20
-0.5 2.5 1 36 35 24
-0.5 3.5 1 38 37 26
0.5 3.5 1 38 37 26
0.5 2.5 1 36 35 24
0 3 1 37 36 25
0.5 -1.5 0 29 29 20
0.5 -0.5 0 29 29 20
1.5 -0.5 0 30 29 20
1.5 -1.5 0 29 29 20
1 -1 0 29 29 20
1.5 -1.5 0 29 29 20
1.5 -0.5 0 30 29 20
2.5 -0.5 0 30 30 20
2.5 -1.5 0 30 30 21
2 -1 0 30 29 20
-3.5 1.5 2 49 48 33
-3.5 2.5 2 51 50 35
-2.5 2.5 2 46 45 31
-2.5 1.5 2 43 42 29
-3 2 2 47 46 32
2.5 -2.5 2 50 49 34
2.5 -1.5 2 48 47 33
3.5 -1.5 2 52 51 35
3.5 -2.5 2 54 53 37
3 -2 2 51 50 35
-2.5 -0.5 0 30 30 21
-2.5 0.5 0 30 30 21
-1.5 0.5 0 30 29 20
-1.5 -0.5 0 30 29 20
-2 0 0 30 29 20
-1.5 -0.5 0 30 29 20
-1.5 0.5 0 30 29 20
-0.5 0.5 0 29 29 20
-0.5 -0.5 0 29 28 20
-1 0 0 29 29 20
-0.5 -0.5 0 29 28 20
-0.5 0.5 0 29 29 20
0.5 0.5 0 30 29 20
0.5 -0.5 0 29 29 20
0 0 0 29 29 20
0.5 -0.5 0 29 29 20
0.5 0.5 0 30 29 20
1.5 0.5 0 30 29 20
1.5 -0.5 0 30 29 20
1 0 0 30 29 20
1.5 -0.5 0 30 29 20
1.5 0.5 0 30 29 20
2.5 0.5 0 31 30 21
2.5 -0.5 0 30 30 20
2 0 0 30 29 20
-2.5 0.5 0 30 30 21
-2.5 1.5 0 31 30 21
-1.5 1.5 0 30 29 20
-1.5 0.5 0 30 29 20
-2 1 0 30 30 21
-1.5 0.5 0 30 29 20
-1.5 1.5 0 30 29 20
-0.5 1.5 0 30 29 20
-0.5 0.5 0 29 29 20
-1 1 0 30 29 20
-0.5 0.5 0 29 29 20
-0.5 1.5 0 30 29 20
0.5 1.5 0 30 29 20
0.5 0.5 0 30 29 20
0 1 0 30 29 20
0.5 0.5 0 30 29 20
0.5 1.5 0 30 29 20
1.5 1.5 0 30 30 20
1.5 0.5 0 30 29 20
1 1 0 30 29 20
1.5 0.5 0 30 29 20
1.5 1.5 0 30 30 20
2.5 1.5 0 31 30 21
2.5 0.5 0 31 30 21
2 1 0 30 30 21
1.5 -3.5 2 52 51 36
1.5 -2.5 2 48 47 32
2.5 -2.5 2 50 49 34
2.5 -3.5 2 54 53 37
2 -3 2 51 50 35
0.5 2.5 1 36 35 24
0.5 3.5 1 38 37 26
1.5 3.5 1 38 37 26
1.5 2.5 1 36 35 24
1 3 1 37 36 25
-2.5 1.5 0 31 30 21
-2.5 2.5 0 31 31 21
-1.5 2.5 0 31 30 21
-1.5 1.5 0 30 29 20
-2 2 0 31 30 21
-1.5 1.5 0 30 29 20
-1.5 2.5 0 31 30 21
-0.5 2.5 0 30 30 21
-0.5 1.5 0 30 29 20
-1 2 0 30 30 20
-0.5 1.5 0 30 29 20
-0.5 2.5 0 30 30 21
0.5 2.5 0 30 29 20
0.5 1.5 0 30 29 20
0 2 0 30 29 20
0.5 1.5 0 30 29 20
0.5 2.5 0 30 29 20
1.5 2.5 0 30 30 21
1.5 1.5 0 30 30 20
1 2 0 30 29 20
1.5 1.5 0 30 30 20
1.5 2.5 0 30 30 21
2.5 2.5 0 31 30 21
2.5 1.5 0 31 30 21
2 2 0 31 30 21
-3.5 -0.5 1 40 39 27
-3.5 0.5 1 39 38 27
-2.5 0.5 1 38 37 26
-2.5 -0.5 1 38 37 26
-3 0 1 39 38 26
-2.5 -3.5 2 55 53 37
-2.5 -2.5 2 50 48 34
-1.5 -2.5 2 47 46 32
-1.5 -3.5 2 52 51 36
-2 -3 2 51 50 35
-1.5 2.5 1 37 36 25
-1.5 3.5 1 39 38 27
-0.5 3.5 1 38 37 26
-0.5 2.5 1 36 35 24
-1 3 1 38 37 26
-3.5 0.5 1 39 38 27
-3.5 1.5 1 40 39 27
-2.5 1.5 1 38 37 26
-2.5 0.5 1 38 37 26
-3 1 1 39 38 26
2.5 -1.5 1 39 38 26
2.5 -0.5 1 37 36 25
3.5 -0.5 1 39 38 27
3.5 -1.5 1 41 40 28
3 -1 1 39 38 26
2.5 -0.5 1 37 36 25
2.5 0.5 1 36 35 24
3.5 0.5 1 38 37 26
3.5 -0.5 1 39 38 27
3 0 1 37 37 25
2.5 0.5 1 36 35 24
2.5 1.5 1 36 35 25
3.5 1.5 1 39 38 26
3.5 0.5 1 38 37 26
3 1 1 37 36 25
-1.5 -3.5 1 43 42 29
-1.5 -2.5 1 40 39 27
-0.5 -2.5 1 39 38 27
-0.5 -3.5 1 41 40 28
-1 -3 1 41 40 28
-0.5 -3.5 1 41 40 28
-0.5 -2.5 1 39 38 27
0.5 -2.5 1 40 39 27
0.5 -3.5 1 42 41 28
0 -3 1 40 40 27
0.5 -3.5 1 42 41 28
0.5 -2.5 1 40 39 27
1.5 -2.5 1 41 40 28
1.5 -3.5 1 43 42 29
1 -3 1 42 41 28
-3.5 -2.5 2 54 53 37
-3.5 -1.5 2 51 50 35
-2.5 -1.5 2 48 47 32
-2.5 -2.5 2 50 48 34
-3 -2 2 51 49 34
2.5 1.5 2 44 43 30
2.5 2.5 2 48 47 32
3.5 2.5 2 54 52 36
3.5 1.5 2 51 50 35
3 2 2 49 48 33
-3.5 -1.5 1 41 40 28
-3.5 -0.5 1 40 39 27
-2.5 -0.5 1 38 37 26
-2.5 -1.5 1 40 39 27
-3 -1 1 40 39 27
-3.5 -0.5 2 215 210 146
-3.5 -0.5 3 227 221 155
-3.5 0.5 3 227 221 155
-3.5 0.5 2 215 210 147
-3.5 0 2.5 221 216 151
2.5 0.5 2 115 112 78
2.5 0.5 3 147 144 100
2.5 1.5 3 143 140 97
2.5 1.5 2 120 118 82
2.5 1 2.5 131 128 89
-2.5 2.5 2 158 154 108
-2.5 2.5 3 204 200 139
-2.5 3.5 3 212 207 145
-2.5 3.5 2 193 188 132
-2.5 3 2.5 192 187 131
0.5 -2.5 1 67 66 46
0.5 -2.5 2 88 86 60
0.5 -1.5 2 96 94 66
0.5 -1.5 1 75 74 51
0.5 -2 1.5 82 80 56
-2.5 -2.5 0 165 161 113
-2.5 -2.5 1 159 156 109
-2.5 -1.5 1 135 132 92
-2.5 -1.5 0 149 145 101
-2.5 -2 0.5 152 149 104
2.5 -1.5 2 121 119 83
2.5 -1.5 3 143 139 97
2.5 -0.5 3 147 143 100
2.5 -0.5 2 115 112 78
2.5 -1 2.5 132 128 90
-2.5 -1.5 0 149 145 101
-2.5 -1.5 1 135 132 92
-2.5 -0.5 1 123 120 84
-2.5 -0.5 0 136 133 92
-2.5 -1 0.5 136 133 92
-3.5 1.5 2 216 211 147
-3.5 1.5 3 228 223 155
-3.5 2.5 3 229 224 156
-3.5 2.5 2 217 212 148
-3.5 2 2.5 223 217 152
2.5 -2.5 2 113 110 77
2.5 -2.5 3 152 149 104
2.5 -1.5 3 143 139 97
2.5 -1.5 2 121 119 83
2.5 -2 2.5 132 129 90
-2.5 -0.5 0 136 133 92
-2.5 -0.5 1 123 120 84
-2.5 0.5 1 122 119 83
-2.5 0.5 0 136 133 92
-2.5 0 0.5 129 126 88
-2.5 0.5 0 136 133 92
-2.5 0.5 1 122 119 83
-2.5 1.5 1 134 131 91
-2.5 1.5 0 148 145 101
-2.5 1 0.5 135 132 92
-2.5 1.5 0 148 145 101
-2.5 1.5 1 134 131 91
-2.5 2.5 1 158 154 107
-2.5 2.5 0 163 160 111
-2.5 2 0.5 151 147 103
-3.5 -0.5 1 200 195 136
-3.5 -0.5 2 215 210 146
-3.5 0.5 2 215 210 147
-3.5 0.5 1 200 195 136
-3.5 0 1.5 207 203 141
-2.5 1.5 1 134 131 91
-2.5 1.5 2 116 113 79
-2.5 2.5 2 158 154 108
-2.5 2.5 1 158 154 107
-2.5 2 1.5 141 138 96
1.5 -1.5 1 89 86 60
1.5 -1.5 2 110 107 75
1.5 -0.5 2 111 108 76
1.5 -0.5 1 92 90 63
1.5 -1 1.5 100 98 68
-2.5 -3.5 2 193 189 132
-2.5 -3.5 3 212 207 144
-2.5 -2.5 3 205 200 139
-2.5 -2.5 2 159 155 108
-2.5 -3 2.5 192 188 131
-1.5 2.5 1 122 119 83
-1.5 2.5 2 112 110 76
-1.5 3.5 2 154 150 105
-1.5 3.5 1 145 141 99
-1.5 3 1.5 133 130 91
-3.5 -1.5 2 215 210 147
-3.5 -1.5 3 228 222 155
-3.5 -0.5 3 227 221 155
-3.5 -0.5 2 215 210 146
-3.5 -1 2.5 221 216 151
-3.5 0.5 1 200 195 136
-3.5 0.5 2 215 210 147
-3.5 1.5 2 216 211 147
-3.5 1.5 1 200 196 137
-3.5 1 1.5 208 203 142
2.5 -0.5 1 82 80 55
2.5 -0.5 2 115 112 78
2.5 0.5 2 115 112 78
2.5 0.5 1 82 80 55
2.5 0 1.5 98 96 67
0.5 1.5 1 76 74 51
0.5 1.5 2 96 94 65
0.5 2.5 2 88 86 60
0.5 2.5 1 68 67 46
0.5 2 1.5 82 80 56
2.5 -0.5 2 115 112 78
2.5 -0.5 3 147 143 100
2.5 0.5 3 147 144 100
2.5 0.5 2 115 112 78
2.5 0 2.5 131 128 89
-1.5 -3.5 1 147 144 100
-1.5 -3.5 2 154 150 105
-1.5 -2.5 2 113 111 77
-1.5 -2.5 1 124 121 84
-1.5 -3 1.5 135 131 92
-3.5 0.5 2 215 210 147
-3.5 0.5 3 227 221 155
-3.5 1.5 3 228 223 155
-3.5 1.5 2 216 211 147
-3.5 1 2.5 222 216 151
-3.5 -2.5 2 216 211 147
-3.5 -2.5 3 229 224 156
-3.5 -1.5 3 228 222 155
-3.5 -1.5 2 215 210 147
-3.5 -2 2.5 222 217 151
-2.5 -2.5 1 159 156 109
-2.5 -2.5 2 159 155 108
-2.5 -1.5 2 117 115 80
-2.5 -1.5 1 135 132 92
-2.5 -2 1.5 143 139 97
1.5 0.5 1 91 89 62
1.5 0.5 2 111 108 75
1.5 1.5 2 109 106 74
1.5 1.5 1 87 85 59
1.5 1 1.5 100 97 68
2.5 1.5 2 120 118 82
2.5 1.5 3 143 140 97
2.5 2.5 3 153 150 104
2.5 2.5 2 110 108 75
2.5 2 2.5 132 129 90
-3.5 -1.5 1 200 195 136
-3.5 -1.5 2 215 210 147
-3.5 -0.5 2 215 210 146
-3.5 -0.5 1 200 195 136
-3.5 -1 1.5 207 203 141
-1.5 2.5 2 129 126 88
-0.5 2.5 2 122 119 83
-0.5 2.5 3 160 156 109
-1.5 2.5 3 156 153 106
-1 2.5 2.5 142 138 97
0.5 2.5 2 123 120 84
1.5 2.5 2 129 126 88
1.5 2.5 3 156 152 106
0.5 2.5 3 160 156 109
1 2.5 2.5 142 139 97
-2.5 2.5 2 120 117 82
-1.5 2.5 2 129 126 88
-1.5 2.5 3 156 153 106
-2.5 2.5 3 167 163 114
-2 2.5 2.5 143 139 97
-2.5 -2.5 0 171 167 117
-1.5 -2.5 0 154 150 105
-1.5 -2.5 1 135 132 92
-2.5 -2.5 1 160 156 109
-2 -2.5 0.5 155 151 106
-1.5 -2.5 0 154 150 105
-0.5 -2.5 0 140 137 96
-0.5 -2.5 1 121 118 82
-1.5 -2.5 1 135 132 92
-1 -2.5 0.5 137 134 94
-0.5 -2.5 0 140 137 96
0.5 -2.5 0 141 138 96
0.5 -2.5 1 120 117 81
-0.5 -2.5 1 121 118 82
0 -2.5 0.5 130 127 89
0.5 -2.5 0 141 138 96
1.5 -2.5 0 157 153 107
1.5 -2.5 1 135 132 92
0.5 -2.5 1 120 117 81
1 -2.5 0.5 138 135 94
1.5 -2.5 0 157 153 107
2.5 -2.5 0 175 171 119
2.5 -2.5 1 162 158 110
1.5 -2.5 1 135 132 92
2 -2.5 0.5 157 153 107
1.5 2.5 2 129 126 88
2.5 2.5 2 120 117 82
2.5 2.5 3 165 162 113
1.5 2.5 3 156 152 106
2 2.5 2.5 143 139 97
-0.5 2.5 1 87 85 60
0.5 2.5 1 87 85 60
0.5 2.5 2 123 120 84
-0.5 2.5 2 122 119 83
0 2.5 1.5 105 102 71
2.5 -2.5 2 162 158 110
3.5 -2.5 2 200 196 137
3.5 -2.5 3 223 218 152
2.5 -2.5 3 214 209 146
3 -2.5 2.5 200 195 136
-0.5 2.5 2 122 119 83
0.5 2.5 2 123 120 84
0.5 2.5 3 160 156 109
-0.5 2.5 3 160 156 109
0 2.5 2.5 141 138 96
0.5 -3.5 2 227 222 155
1.5 -3.5 2 228 222 155
1.5 -3.5 3 242 236 165
0.5 -3.5 3 241 236 165
1 -3.5 2.5 235 229 160
1.5 -3.5 2 228 222 155
2.5 -3.5 2 229 223 156
2.5 -3.5 3 243 238 166
1.5 -3.5 3 242 236 165
2 -3.5 2.5 235 230 161
-2.5 0.5 1 75 73 51
-1.5 0.5 1 83 81 56
-1.5 0.5 2 103 101 70
-2.5 0.5 2 95 93 65
-2 0.5 1.5 89 87 61
-1.5 -3.5 2 228 222 155
-0.5 -3.5 2 227 221 155
-0.5 -3.5 3 241 235 164
-1.5 -3.5 3 242 236 165
-1 -3.5 2.5 234 229 160
-0.5 -3.5 2 227 221 155
0.5 -3.5 2 227 222 155
0.5 -3.5 3 241 236 165
-0.5 -3.5 3 241 235 164
0 -3.5 2.5 234 229 160
-2.5 -3.5 2 229 224 156
-1.5 -3.5 2 228 222 155
-1.5 -3.5 3 242 236 165
-2.5 -3.5 3 244 238 166
-2 -3.5 2.5 236 230 161
2.5 -1.5 1 125 122 85
3.5 -1.5 1 150 147 102
3.5 -1.5 2 158 154 107
2.5 -1.5 2 111 108 76
3 -1.5 1.5 136 133 93
0.5 1.5 1 101 99 69
1.5 1.5 1 96 94 66
1.5 1.5 2 118 115 80
0.5 1.5 2 120 117 82
1 1.5 1.5 109 106 74
-1.5 1.5 1 95 92 64
-0.5 1.5 1 100 98 68
-0.5 1.5 2 119 116 81
-1.5 1.5 2 116 113 79
-1 1.5 1.5 107 105 73
-1.5 -3.5 1 211 206 144
-0.5 -3.5 1 210 205 143
-0.5 -3.5 2 227 221 155
-1.5 -3.5 2 228 222 155
-1 -3.5 1.5 219 214 149
-0.5 -3.5 1 210 205 143
0.5 -3.5 1 210 205 143
0.5 -3.5 2 227 222 155
-0.5 -3.5 2 227 221 155
0 -3.5 1.5 219 213 149
0.5 -3.5 1 210 205 143
1.5 -3.5 1 211 206 144
1.5 -3.5 2 228 222 155
0.5 -3.5 2 227 222 155
1 -3.5 1.5 219 214 149
-3.5 -2.5 2 201 196 137
-2.5 -2.5 2 162 159 111
-2.5 -2.5 3 215 209 146
-3.5 -2.5 3 223 218 152
-3 -2.5 2.5 200 196 136
-2.5 -2.5 1 160 156 109
-1.5 -2.5 1 135 132 92
-1.5 -2.5 2 119 116 81
-2.5 -2.5 2 162 159 111
-2 -2.5 1.5 144 141 98
1.5 0.5 1 82 80 56
2.5 0.5 1 71 69 48
2.5 0.5 2 94 91 64
1.5 0.5 2 104 101 71
2 0.5 1.5 87 85 60
1.5 -2.5 1 135 132 92
2.5 -2.5 1 162 158 110
2.5 -2.5 2 162 158 110
1.5 -2.5 2 115 112 78
2 -2.5 1.5 143 140 98
-3.5 -1.5 1 147 144 100
-2.5 -1.5 1 124 121 85
-2.5 -1.5 2 114 111 78
-3.5 -1.5 2 158 154 107
-3 -1.5 1.5 136 132 92
3 4 0 1
3 4 1 2
3 4 2 3
3 4 3 0
3 9 5 6
3 9 6 7
3 9 7 8
3 9 8 5
3 14 10 11
3 14 11 12
3 14 12 13
3 14 13 10
3 19 15 16
3 19 16 17
3 19 17 18
3 19 18 15
3 24 20 21
3 24 21 22
3 24 22 23
3 24 23 20
3 29 25 26
3 29 26 27
3 29 27 28
3 29 28 25
3 34 30 31
3 34 31 32
3 34 32 33
3 34 33 30
3 39 35 36
3 39 36 37
3 39 37 38
3 39 38 35
3 44 40 41
3 44 41 42
3 44 42 43
3 44 43 40
3 49 45 46
3 49 46 47
3 49 47 48
3 49 48 45
3 54 50 51
3 54 51 52
3 54 52 53
3 54 53 50
3 59 55 56
3 59 56 57
3 59 57 58
3 59 58 55
3 64 60 61
3 64 61 62
3 64 62 63
3 64 63 60
3 69 65 66
3 69 66 67
3 69 67 68
3 69 68 65
3 74 70 71
3 74 71 72
3 74 72 73
3 74 73 70
3 79 75 76
3 79 76 77
3 79 77 78
3 79 78 75
3 84 80 81
3 84 81 82
3 84 82 83
3 84 83 80
3 89 85 86
3 89 86 87
3 89 87 88
3 89 88 85
3 94 90 91
3 94 91 92
3 94 92 93
3 94 93 90
3 99 95 96
3 99 96 97
3 99 97 98
3 99 98 95
3 104 100 101
3 104 101 102
3 104 102 103
3 104 103 100
3 109 105 106
3 109 106 107
3 109 107 108
3 109 108 105
3 114 110 111
3 114 111 112
3 114 112 113
3 114 113 110
3 119 115 116
3 119 116 117
3 119 117 118
3 119 118 115
3 124 120 121
3 124 121 122
3 124 122 123
3 124 123 120
3 129 125 126
3 129 126 127
3 129 127 128
3 129 128 125
3 134 130 131
3 134 131 132
3 134 132 133
3 134 133 130
3 139 135 136
3 139 136 137
3 139 137 138
3 139 138 135
3 144 140 141
3 144 141 142
3 144 142 143
3 144 143 140
3 149 145 146
3 149 146 147
3 149 147 148
3 149 148 145
3 154 150 151
3 154 151 152
3 154 152 153
3 154 153 150
3 159 155 156
3 159 156 157
3 159 157 158
3 159 158 155
3 164 160 161
3 164 161 162
3 164 162 163
3 164 163 160
3 169 165 166
3 169 166 167
3 169 167 168
3 169 168 165
3 174 170 171
3 174 171 172
3 174 172 173
3 174 173 170
3 179 175 176
3 179 176 177
3 179 177 178
3 179 178 175
3 184 180 181
3 184 181 182
3 184 182 183
3 184 183 180
3 189 185 186
3 189 186 187
3 189 187 188
3 189 188 185
3 194 190 191
3 194 191 192
3 194 192 193
3 194 193 190
3 199 195 196
3 199 196 197
3 199 197 198
3 199 198 195
3 204 200 201
3 204 201 202
3 204 202 203
3 204 203 200
3 209 205 206
3 209 206 207
3 209 207 208
3 209 208 205
3 214 210 211
3 214 211 212
3 214 212 213
3 214 213 210
3 219 215 216
3 219 216 217
3 219 217 218
3 219 218 215
3 224 220 221
3 224 221 222
3 224 222 223
3 224 223 220
3 229 225 226
3 229 226 227
3 229 227 228
3 229 228 225
3 234 230 231
3 234 231 232
3 234 232 233
3 234 233 230
3 239 235 236
3 239 236 237
3 239 237 238
3 239 238 235
3 244 240 241
3 244 241 242
3 244 242 243
3 244 243 240
3 249 245 246
3 249 246 247
3 249 247 248
3 249 248 245
3 254 250 251
3 254 251 252
3 254 252 253
3 254 253 250
3 259 255 256
3 259 256 257
3 259 257 258
3 259 258 255
3 264 260 261
3 264 261 262
3 264 262 263
3 264 263 260
3 269 265 266
3 269 266 267
3 269 267 268
3 269 268 265
3 274 270 271
3 274 271 272
3 274 272 273
3 274 273 270
3 279 275 276
3 279 276 277
3 279 277 278
3 279 278 275
3 284 280 281
3 284 281 282
3 284 282 283
3 284 283 280
3 289 285 286
3 289 286 287
3 289 287 288
3 289 288 285
3 294 290 291
3 294 291 292
3 294 292 293
3 294 293 290
3 299 295 296
3 299 296 297
3 299 297 298
3 299 298 295
3 304 300 301
3 304 301 302
3 304 302 303
3 304 303 300
3 309 305 306
3 309 306 307
3 309 307 308
3 309 308 305
3 314 310 311
3 314 311 312
3 314 312 313
3 314 313 310
3 319 315 316
3 319 316 317
3 319 317 318
3 319 318 315
3 324 320 321
3 324 321 322
3 324 322 323
3 324 323 320
3 329 325 326
3 329 326 327
3 329 327 328
3 329 328 325
3 334 330 331
3 334 331 332
3 334 332 333
3 334 333 330
3 339 335 336
3 339 336 337
3 339 337 338
3 339 338 335
3 344 340 341
3 344 341 342
3 344 342 343
3 344 343 340
3 349 345 346
3 349 346 347
3 349 347 348
3 349 348 345
3 354 350 351
3 354 351 352
3 354 352 353
3 354 353 350
3 359 355 356
3 359 356 357
3 359 357 358
3 359 358 355
3 364 360 361
3 364 361 362
3 364 362 363
3 364 363 360
3 369 365 366
3 369 366 367
3 369 367 368
3 369 368 365
3 374 370 371
3 374 371 372
3 374 372 373
3 374 373 370
3 379 375 376
3 379 376 377
3 379 377 378
3 379 378 375
3 384 380 381
3 384 381 382
3 384 382 383
3 384 383 380
3 389 385 386
3 389 386 387
3 389 387 388
3 389 388 385
3 394 390 391
3 394 391 392
3 394 392 393
3 394 393 390
3 399 395 396
3 399 396 397
3 399 397 398
3 399 398 395
3 404 400 401
3 404 401 402
3 404 402 403
3 404 403 400
3 409 405 406
3 409 406 407
3 409 407 408
3 409 408 405
3 414 410 411
3 414 411 412
3 414 412 413
3 414 413 410
3 419 415 416
3 419 416 417
3 419 417 418
3 419 418 415
3 424 420 421
3 424 421 422
3 424 422 423
3 424 423 420
3 429 425 426
3 429 426 427
3 429 427 428
3 429 428 425
3 434 430 431
3 434 431 432
3 434 432 433
3 434 433 430
3 439 435 436
3 439 436 437
3 439 437 438
3 439 438 435
3 444 440 441
3 444 441 442
3 444 442 443
3 444 443 440
3 449 445 446
3 449 446 447
3 449 447 448
3 449 448 445
3 454 450 451
3 454 451 452
3 454 452 453
3 454 453 450
3 459 455 456
3 459 456 457
3 459 457 458
3 459 458 455
3 464 460 461
3 464 461 462
3 464 462 463
3 464 463 460
3 469 465 466
3 469 466 467
3 469 467 468
3 469 468 465
3 474 470 471
3 474 471 472
3 474 472 473
3 474 473 470
3 479 475 476
3 479 476 477
3 479 477 478
3 479 478 475
3 484 480 481
3 484 481 482
3 484 482 483
3 484 483 480
3 489 485 486
3 489 486 487
3 489 487 488
3 489 488 485
3 494 490 491
3 494 491 492
3 494 492 493
3 494 493 490
3 499 495 496
3 499 496 497
3 499 497 498
3 499 498 495
3 504 500 501
3 504 501 502
3 504 502 503
3 504 503 500
3 509 505 506
3 509 506 507
3 509 507 508
3 509 508 505
3 514 510 511
3 514 511 512
3 514 512 513
3 514 513 510
3 519 515 516
3 519 516 517
3 519 517 518
3 519 518 515
3 524 520 521
3 524 521 522
3 524 522 523
3 524 523 520
3 529 525 526
3 529 526 527
3 529 527 528
3 529 528 525
3 534 530 531
3 534 531 532
3 534 532 533
3 534 533 530
3 539 535 536
3 539 536 537
3 539 537 538
3 539 538 535
3 544 540 541
3 544 541 542
3 544 542 543
3 544 543 540
3 549 545 546
3 549 546 547
3 549 547 548
3 549 548 545
3 554 550 551
3 554 551 552
3 554 552 553
3 554 553 550
3 559 555 556
3 559 556 557
3 559 557 558
3 559 558 555
3 564 560 561
3 564 561 562
3 564 562 563
3 564 563 560
3 569 565 566
3 569 566 567
3 569 567 568
3 569 568 565
3 574 570 571
3 574 571 572
3 574 572 573
3 574 573 570
3 579 575 576
3 579 576 577
3 579 577 578
3 579 578 575
3 584 580 581
3 584 581 582
3 584 582 583
3 584 583 580
3 589 585 586
3 589 586 587
3 589 587 588
3 589 588 585
3 594 590 591
3 594 591 592
3 594 592 593
3 594 593 590
3 599 595 596
3 599 596 597
3 599 597 598
3 599 598 595
3 604 600 601
3 604 601 602
3 604 602 603
3 604 603 600
3 609 605 606
3 609 606 607
3 609 607 608
3 609 608 605
3 614 610 611
3 614 611 612
3 614 612 613
3 614 613 610
3 619 615 616
3 619 616 617
3 619 617 618
3 619 618 615
3 624 620 621
3 624 621 622
3 624 622 623
3 624 623 620
3 629 625 626
3 629 626 627
3 629 627 628
3 629 628 625
3 634 630 631
3 634 631 632
3 634 632 633
3 634 633 630
3 639 635 636
3 639 636 637
3 639 637 638
3 639 638 635
3 644 640 641
3 644 641 642
3 644 642 643
3 644 643 640
3 649 645 646
3 649 646 647
3 649 647 648
3 649 648 645
3 654 650 651
3 654 651 652
3 654 652 653
3 654 653 650
3 659 655 656
3 659 656 657
3 659 657 658
3 659 658 655
3 664 660 661
3 664 661 662
3 664 662 663
3 664 663 660
3 669 665 666
3 669 666 667
3 669 667 668
3 669 668 665
3 674 670 671
3 674 671 672
3 674 672 673
3 674 673 670
3 679 675 676
3 679 676 677
3 679 677 678
3 679 678 675
3 684 680 681
3 684 681 682
3 684 682 683
3 684 683 680
3 689 685 686
3 689 686 687
3 689 687 688
3 689 688 685
3 694 690 691
3 694 691 692
3 694 692 693
3 694 693 690
3 699 695 696
3 699 696 697
3 699 697 698
3 699 698 695
3 704 700 701
3 704 701 702
3 704 702 703
3 704 703 700
3 709 705 706
3 709 706 707
3 709 707 708
3 709 708 705
3 714 710 711
3 714 711 712
3 714 712 713
3 714 713 710
3 719 715 716
3 719 716 717
3 719 717 718
3 719 718 715
3 724 720 721
3 724 721 722
3 724 722 723
3 724 723 720
3 729 725 726
3 729 726 727
3 729 727 728
3 729 728 725
3 734 730 731
3 734 731 732
3 734 732 733
3 734 733 730
3 739 735 736
3 739 736 737
3 739 737 738
3 739 738 735
3 744 740 741
3 744 741 742
3 744 742 743
3 744 743 740
3 749 745 746
3 749 746 747
3 749 747 748
3 749 748 745
3 754 750 751
3 754 751 752
3 754 752 753
3 754 753 750
3 759 755 756
3 759 756 757
3 759 757 758
3 759 758 755
3 764 760 761
3 764 761 762
3 764 762 763
3 764 763 760
3 769 765 766
3 769 766 767
3 769 767 768
3 769 768 765
3 774 770 771
3 774 771 772
3 774 772 773
3 774 773 770
3 779 775 776
3 779 776 777
3 779 777 778
3 779 778 775
3 784 780 781
3 784 781 782
3 784 782 783
3 784 783 780
3 789 785 786
3 789 786 787
3 789 787 788
3 789 788 785
3 794 790 791
3 794 791 792
3 794 792 793
3 794 793 790
3 799 795 796
3 799 796 797
3 799 797 798
3 799 798 795
3 804 800 801
3 804 801 802
3 804 802 803
3 804 803 800
3 809 805 806
3 809 806 807
3 809 807 808
3 809 808 805
3 814 810 811
3 814 811 812
3 814 812 813
3 814 813 810
3 819 815 816
3 819 816 817
3 819 817 818
3 819 818 815
3 824 820 821
3 824 821 822
3 824 822 823
3 824 823 820
3 829 825 826
3 829 826 827
3 829 827 828
3 829 828 825
3 834 830 831
3 834 831 832
3 834 832 833
3 834 833 830
3 839 835 836
3 839 836 837
3 839 837 838
3 839 838 835
3 844 840 841
3 844 841 842
3 844 842 843
3 844 843 840
3 849 845 846
3 849 846 847
3 849 847 848
3 849 848 845
3 854 850 851
3 854 851 852
3 854 852 853
3 854 853 850
3 859 855 856
3 859 856 857
3 859 857 858
3 859 858 855
3 864 860 861
3 864 861 862
3 864 862 863
3 864 863 860
3 869 865 866
3 869 866 867
3 869 867 868
3 869 868 865
3 874 870 871
3 874 871 872
3 874 872 873
3 874 873 870
3 879 875 876
3 879 876 877
3 879 877 878
3 879 878 875
3 884 880 881
3 884 881 882
3 884 882 883
3 884 883 880
3 889 885 886
3 889 886 887
3 889 887 888
3 889 888 885
3 894 890 891
3 894 891 892
3 894 892 893
3 894 893 890
3 899 895 896
3 899 896 897
3 899 897 898
3 899 898 895
3 904 900 901
3 904 901 902
3 904 902 903
3 904 903 900
3 909 905 906
3 909 906 907
3 909 907 908
3 909 908 905
3 914 910 911
3 914 911 912
3 914 912 913
3 914 913 910
3 919 915 916
3 919 916 917
3 919 917 918
3 919 918 915
3 924 920 921
3 924 921 922
3 924 922 923
3 924 923 920
3 929 925 926
3 929 926 927
3 929 927 928
3 929 928 925
3 934 930 931
3 934 931 932
3 934 932 933
3 934 933 930
3 939 935 936
3 939 936 937
3 939 937 938
3 939 938 935
3 944 940 941
3 944 941 942
3 944 942 943
3 944 943 940
3 949 945 946
3 949 946 947
3 949 947 948
3 949 948 945
3 954 950 951
3 954 951 952
3 954 952 953
3 954 953 950
3 959 955 956
3 959 956 957
3 959 957 958
3 959 958 955
3 964 960 961
3 964 961 962
3 964 962 963
3 964 963 960
3 969 965 966
3 969 966 967
3 969 967 968
3 969 968 965
3 974 970 971
3 974 971 972
3 974 972 973
3 974 973 970
3 979 975 976
3 979 976 977
3 979 977 978
3 979 978 975
3 984 980 981
3 984 981 982
3 984 982 983
3 984 983 980
3 989 985 986
3 989 986 987
3 989 987 988
3 989 988 985
3 994 990 991
3 994 991 992
3 994 992 993
3 994 993 990
3 999 995 996
3 999 996 997
3 999 997 998
3 999 998 995
3 1004 1000 1001
3 1004 1001 1002
3 1004 1002 1003
3 1004 1003 1000
3 1009 1005 1006
3 1009 1006 1007
3 1009 1007 1008
3 1009 1008 1005
3 1014 1010 1011
3 1014 1011 1012
3 1014 1012 1013
3 1014 1013 1010
3 1019 1015 1016
3 1019 1016 1017
3 1019 1017 1018
3 1019 1018 1015
3 1024 1020 1021
3 1024 1021 1022
3 1024 1022 1023
3 1024 1023 1020
3 1029 1025 1026
3 1029 1026 1027
3 1029 1027 1028
3 1029 1028 1025
