ply
format ascii 1.0
comment : 
comment : MagicaVoxel @ ephtracy
element vertex 750
property float x
property float y
property float z
property uchar red
property uchar green
property uchar blue
element face 600
property list uchar int vertex_index
end_header
-3 -1.5 5 118 118 118
-2 -1.5 5 128 128 128
-2 -0.5 5 125 125 125
-3 -0.5 5 106 106 106
-2.5 -1 5 119 119 119
2 -0.5 3 128 128 128
3 -0.5 3 119 119 119
3 0.5 3 113 113 113
2 0.5 3 126 126 126
2.5 0 3 121 121 121
-5 -0.5 5 123 123 123
-4 -0.5 5 104 104 104
-4 0.5 5 104 104 104
-5 0.5 5 123 123 123
-4.5 0 5 114 114 114
0 -1.5 3 128 128 128
1 -1.5 3 131 131 131
1 -0.5 3 130 130 130
0 -0.5 3 125 125 125
0.5 -1 3 129 129 129
-3 -0.5 5 106 106 106
-2 -0.5 5 125 125 125
-2 0.5 5 125 125 125
-3 0.5 5 106 106 106
-2.5 0 5 115 115 115
-2 -1.5 3 106 106 106
-1 -1.5 3 117 117 117
-1 -0.5 3 109 109 109
-2 -0.5 3 97 97 97
-1.5 -1 3 108 108 108
-5 -1.5 5 126 126 126
-4 -1.5 5 117 117 117
-4 -0.5 5 104 104 104
-5 -0.5 5 123 123 123
-4.5 -1 5 118 118 118
-3 0.5 5 106 106 106
-2 0.5 5 125 125 125
-2 1.5 5 128 128 128
-3 1.5 5 117 117 117
-2.5 1 5 119 119 119
-4 0.5 6 139 139 139
-3 0.5 6 139 139 139
-3 1.5 6 139 139 139
-4 1.5 6 139 139 139
-3.5 1 6 139 139 139
-4 -1.5 6 139 139 139
-3 -1.5 6 139 139 139
-3 -0.5 6 139 139 139
-4 -0.5 6 139 139 139
-3.5 -1 6 139 139 139
4 -0.5 4 111 111 111
5 -0.5 4 112 112 112
5 0.5 4 104 104 104
4 0.5 4 101 101 101
4.5 0 4 107 107 107
-5 0.5 5 123 123 123
-4 0.5 5 104 104 104
-4 1.5 5 115 115 115
-5 1.5 5 126 126 126
-4.5 1 5 117 117 117
-2 -0.5 3 97 97 97
-1 -0.5 3 109 109 109
-1 0.5 3 110 110 110
-2 0.5 3 98 98 98
-1.5 0 3 103 103 103
1 -0.5 3 130 130 130
2 -0.5 3 128 128 128
2 0.5 3 126 126 126
1 0.5 3 130 130 130
1.5 0 3 128 128 128
-4 -0.5 5 104 104 104
-3 -0.5 5 106 106 106
-3 0.5 5 106 106 106
-4 0.5 5 104 104 104
-3.5 0 5 105 105 105
1 -1.5 3 131 131 131
2 -1.5 3 131 131 131
2 -0.5 3 128 128 128
1 -0.5 3 130 130 130
1.5 -1 3 130 130 130
2 -1.5 3 131 131 131
3 -1.5 3 127 127 127
3 -0.5 3 119 119 119
2 -0.5 3 128 128 128
2.5 -1 3 126 126 126
3 -0.5 3 119 119 119
4 -0.5 3 111 111 111
4 0.5 3 97 97 97
3 0.5 3 113 113 113
3.5 0 3 110 110 110
-2 0.5 3 98 98 98
-1 0.5 3 110 110 110
-1 1.5 3 118 118 118
-2 1.5 3 107 107 107
-1.5 1 3 108 108 108
-1 0.5 3 110 110 110
0 0.5 3 126 126 126
0 1.5 3 128 128 128
-1 1.5 3 118 118 118
-0.5 1 3 120 120 120
0 0.5 3 126 126 126
1 0.5 3 130 130 130
1 1.5 3 131 131 131
0 1.5 3 128 128 128
0.5 1 3 129 129 129
-1 -0.5 3 109 109 109
0 -0.5 3 125 125 125
0 0.5 3 126 126 126
-1 0.5 3 110 110 110
-0.5 0 3 117 117 117
1 0.5 3 130 130 130
2 0.5 3 126 126 126
2 1.5 3 126 126 126
1 1.5 3 131 131 131
1.5 1 3 128 128 128
0 -0.5 3 125 125 125
1 -0.5 3 130 130 130
1 0.5 3 130 130 130
0 0.5 3 126 126 126
0.5 0 3 128 128 128
-1 -1.5 3 117 117 117
0 -1.5 3 128 128 128
0 -0.5 3 125 125 125
-1 -0.5 3 109 109 109
-0.5 -1 3 120 120 120
2 0.5 3 126 126 126
3 0.5 3 113 113 113
3 1.5 3 116 116 116
2 1.5 3 126 126 126
2.5 1 3 120 120 120
4 0.5 5 116 116 116
5 0.5 5 118 118 118
5 1.5 5 127 127 127
4 1.5 5 127 127 127
4.5 1 5 122 122 122
4 -0.5 6 139 139 139
5 -0.5 6 139 139 139
5 0.5 6 139 139 139
4 0.5 6 139 139 139
4.5 0 6 139 139 139
-2 -1.5 4 94 94 94
-2 -0.5 4 93 93 93
-2 -0.5 5 101 101 101
-2 -1.5 5 100 100 100
-2 -1 4.5 97 97 97
3 -0.5 1 80 80 80
3 0.5 1 76 76 76
3 0.5 2 68 68 68
3 -0.5 2 76 76 76
3 0 1.5 75 75 75
3 -1.5 1 87 87 87
3 -0.5 1 80 80 80
3 -0.5 2 76 76 76
3 -1.5 2 86 86 86
3 -1 1.5 82 82 82
3 0.5 1 76 76 76
3 1.5 1 79 79 79
3 1.5 2 76 76 76
3 0.5 2 68 68 68
3 1 1.5 75 75 75
-2 0.5 3 88 88 88
-2 1.5 3 82 82 82
-2 1.5 4 94 94 94
-2 0.5 4 93 93 93
-2 1 3.5 89 89 89
3 -1.5 0 84 84 84
3 -0.5 0 83 83 83
3 -0.5 1 80 80 80
3 -1.5 1 87 87 87
3 -1 0.5 84 84 84
3 0.5 0 81 81 81
3 1.5 0 81 81 81
3 1.5 1 79 79 79
3 0.5 1 76 76 76
3 1 0.5 79 79 79
-2 -0.5 4 93 93 93
-2 0.5 4 93 93 93
-2 0.5 5 101 101 101
-2 -0.5 5 101 101 101
-2 0 4.5 97 97 97
-2 0.5 4 93 93 93
-2 1.5 4 94 94 94
-2 1.5 5 100 100 100
-2 0.5 5 101 101 101
-2 1 4.5 97 97 97
-3 0.5 5 98 98 98
-3 1.5 5 91 91 91
-3 1.5 6 102 102 102
-3 0.5 6 102 102 102
-3 1 5.5 98 98 98
-3 -1.5 5 93 93 93
-3 -0.5 5 97 97 97
-3 -0.5 6 101 101 101
-3 -1.5 6 102 102 102
-3 -1 5.5 98 98 98
5 -0.5 3 105 105 105
5 0.5 3 105 105 105
5 0.5 4 110 110 110
5 -0.5 4 111 111 111
5 0 3.5 108 108 108
-1 -1.5 0 55 55 55
-1 -0.5 0 42 42 42
-1 -0.5 1 34 34 34
-1 -1.5 1 55 55 55
-1 -1 0.5 46 46 46
-1 0.5 0 39 39 39
-1 1.5 0 49 49 49
-1 1.5 1 49 49 49
-1 0.5 1 32 32 32
-1 1 0.5 42 42 42
-2 -0.5 3 88 88 88
-2 0.5 3 88 88 88
-2 0.5 4 93 93 93
-2 -0.5 4 93 93 93
-2 0 3.5 91 91 91
-2 -1.5 3 84 84 84
-2 -0.5 3 88 88 88
-2 -0.5 4 93 93 93
-2 -1.5 4 94 94 94
-2 -1 3.5 90 90 90
3 -1.5 2 86 86 86
3 -0.5 2 76 76 76
3 -0.5 3 75 75 75
3 -1.5 3 86 86 86
3 -1 2.5 80 80 80
4 -0.5 2 87 87 87
4 0.5 2 83 83 83
4 0.5 3 70 70 70
4 -0.5 3 83 83 83
4 0 2.5 81 81 81
3 0.5 2 68 68 68
3 1.5 2 76 76 76
3 1.5 3 74 74 74
3 0.5 3 65 65 65
3 1 2.5 71 71 71
5 0.5 4 110 110 110
5 1.5 4 110 110 110
5 1.5 5 115 115 115
5 0.5 5 115 115 115
5 1 4.5 113 113 113
5 -0.5 5 116 116 116
5 0.5 5 115 115 115
5 0.5 6 119 119 119
5 -0.5 6 119 119 119
5 0 5.5 117 117 117
2 1.5 1 85 85 85
2 1.5 2 91 91 91
3 1.5 2 91 91 91
3 1.5 1 85 85 85
2.5 1.5 1.5 88 88 88
-3 1.5 3 95 95 95
-3 1.5 4 100 100 100
-2 1.5 4 100 100 100
-2 1.5 3 95 95 95
-2.5 1.5 3.5 98 98 98
2 -0.5 0 39 39 39
2 -0.5 1 30 30 30
3 -0.5 1 43 43 43
3 -0.5 0 49 49 49
2.5 -0.5 0.5 40 40 40
2 1.5 0 79 79 79
2 1.5 1 85 85 85
3 1.5 1 85 85 85
3 1.5 0 79 79 79
2.5 1.5 0.5 82 82 82
1 1.5 1 85 85 85
1 1.5 2 90 90 90
2 1.5 2 91 91 91
2 1.5 1 85 85 85
1.5 1.5 1.5 88 88 88
-3 1.5 4 100 100 100
-3 1.5 5 105 105 105
-2 1.5 5 104 104 104
-2 1.5 4 100 100 100
-2.5 1.5 4.5 102 102 102
-5 1.5 3 96 96 96
-5 1.5 4 101 101 101
-4 1.5 4 101 101 101
-4 1.5 3 95 95 95
-4.5 1.5 3.5 98 98 98
0 1.5 1 85 85 85
0 1.5 2 90 90 90
1 1.5 2 90 90 90
1 1.5 1 85 85 85
0.5 1.5 1.5 87 87 87
-4 1.5 5 105 105 105
-4 1.5 6 108 108 108
-3 1.5 6 108 108 108
-3 1.5 5 105 105 105
-3.5 1.5 5.5 107 107 107
-1 1.5 1 85 85 85
-1 1.5 2 90 90 90
0 1.5 2 90 90 90
0 1.5 1 85 85 85
-0.5 1.5 1.5 87 87 87
-4 -0.5 5 75 75 75
-4 -0.5 6 88 88 88
-3 -0.5 6 87 87 87
-3 -0.5 5 73 73 73
-3.5 -0.5 5.5 81 81 81
4 0.5 3 80 80 80
4 0.5 4 81 81 81
5 0.5 4 83 83 83
5 0.5 3 86 86 86
4.5 0.5 3.5 82 82 82
-2 1.5 1 85 85 85
-2 1.5 2 90 90 90
-1 1.5 2 90 90 90
-1 1.5 1 85 85 85
-1.5 1.5 1.5 88 88 88
-5 1.5 4 101 101 101
-5 1.5 5 106 106 106
-4 1.5 5 105 105 105
-4 1.5 4 101 101 101
-4.5 1.5 4.5 103 103 103
-2 -0.5 0 47 47 47
-2 -0.5 1 43 43 43
-1 -0.5 1 30 30 30
-1 -0.5 0 39 39 39
-1.5 -0.5 0.5 40 40 40
-2 1.5 0 79 79 79
-2 1.5 1 85 85 85
-1 1.5 1 85 85 85
-1 1.5 0 79 79 79
-1.5 1.5 0.5 82 82 82
-4 1.5 3 95 95 95
-4 1.5 4 101 101 101
-3 1.5 4 100 100 100
-3 1.5 3 95 95 95
-3.5 1.5 3.5 98 98 98
-4 1.5 4 101 101 101
-4 1.5 5 105 105 105
-3 1.5 5 105 105 105
-3 1.5 4 100 100 100
-3.5 1.5 4.5 103 103 103
3 0.5 2 68 68 68
3 0.5 3 82 82 82
4 0.5 3 80 80 80
4 0.5 2 76 76 76
3.5 0.5 2.5 76 76 76
-2 1.5 2 90 90 90
-2 1.5 3 95 95 95
-1 1.5 3 95 95 95
-1 1.5 2 90 90 90
-1.5 1.5 2.5 93 93 93
-1 1.5 2 90 90 90
-1 1.5 3 95 95 95
0 1.5 3 95 95 95
0 1.5 2 90 90 90
-0.5 1.5 2.5 93 93 93
0 1.5 2 90 90 90
0 1.5 3 95 95 95
1 1.5 3 95 95 95
1 1.5 2 90 90 90
0.5 1.5 2.5 93 93 93
1 1.5 2 90 90 90
1 1.5 3 95 95 95
2 1.5 3 96 96 96
2 1.5 2 91 91 91
1.5 1.5 2.5 93 93 93
2 1.5 2 91 91 91
2 1.5 3 96 96 96
3 1.5 3 96 96 96
3 1.5 2 91 91 91
2.5 1.5 2.5 93 93 93
4 1.5 4 101 101 101
4 1.5 5 105 105 105
5 1.5 5 106 106 106
5 1.5 4 102 102 102
4.5 1.5 4.5 104 104 104
4 0.5 5 94 94 94
4 0.5 6 105 105 105
5 0.5 6 106 106 106
5 0.5 5 95 95 95
4.5 0.5 5.5 100 100 100
2 -0.5 1 13 13 13
2 0.5 1 13 13 13
3 0.5 1 14 14 14
3 -0.5 1 14 14 14
2.5 0 1 14 14 14
-5 -1.5 3 25 25 25
-5 -0.5 3 24 24 24
-4 -0.5 3 23 23 23
-4 -1.5 3 24 24 24
-4.5 -1 3 24 24 24
-3 0.5 3 21 21 21
-3 1.5 3 22 22 22
-2 1.5 3 21 21 21
-2 0.5 3 20 20 20
-2.5 1 3 21 21 21
2 -1.5 0 12 12 12
2 -0.5 0 12 12 12
3 -0.5 0 12 12 12
3 -1.5 0 13 13 13
2.5 -1 0 12 12 12
2 0.5 0 12 12 12
2 1.5 0 12 12 12
3 1.5 0 13 13 13
3 0.5 0 12 12 12
2.5 1 0 12 12 12
1 -1.5 1 14 14 14
1 -0.5 1 14 14 14
2 -0.5 1 13 13 13
2 -1.5 1 15 15 15
1.5 -1 1 14 14 14
1 -0.5 1 14 14 14
1 0.5 1 14 14 14
2 0.5 1 13 13 13
2 -0.5 1 13 13 13
1.5 0 1 14 14 14
1 0.5 1 14 14 14
1 1.5 1 14 14 14
2 1.5 1 14 14 14
2 0.5 1 13 13 13
1.5 1 1 14 14 14
0 -1.5 1 14 14 14
0 -0.5 1 13 13 13
1 -0.5 1 14 14 14
1 -1.5 1 14 14 14
0.5 -1 1 14 14 14
0 -0.5 1 13 13 13
0 0.5 1 13 13 13
1 0.5 1 14 14 14
1 -0.5 1 14 14 14
0.5 0 1 13 13 13
-5 0.5 3 24 24 24
-5 1.5 3 24 24 24
-4 1.5 3 23 23 23
-4 0.5 3 23 23 23
-4.5 1 3 23 23 23
0 0.5 1 13 13 13
0 1.5 1 14 14 14
1 1.5 1 14 14 14
1 0.5 1 14 14 14
0.5 1 1 14 14 14
-1 -1.5 1 14 14 14
-1 -0.5 1 13 13 13
0 -0.5 1 13 13 13
0 -1.5 1 14 14 14
-0.5 -1 1 14 14 14
-1 -0.5 1 13 13 13
-1 0.5 1 13 13 13
0 0.5 1 13 13 13
0 -0.5 1 13 13 13
-0.5 0 1 13 13 13
-1 0.5 1 13 13 13
-1 1.5 1 14 14 14
0 1.5 1 14 14 14
0 0.5 1 13 13 13
-0.5 1 1 13 13 13
-5 -0.5 3 24 24 24
-5 0.5 3 24 24 24
-4 0.5 3 23 23 23
-4 -0.5 3 23 23 23
-4.5 0 3 23 23 23
4 -0.5 3 23 23 23
4 0.5 3 22 22 22
5 0.5 3 25 25 25
5 -0.5 3 25 25 25
4.5 0 3 24 24 24
-2 -0.5 1 14 14 14
-2 0.5 1 14 14 14
-1 0.5 1 13 13 13
-1 -0.5 1 13 13 13
-1.5 0 1 13 13 13
-2 -1.5 0 13 13 13
-2 -0.5 0 13 13 13
-1 -0.5 0 13 13 13
-1 -1.5 0 13 13 13
-1.5 -1 0 13 13 13
-2 0.5 0 13 13 13
-2 1.5 0 13 13 13
-1 1.5 0 13 13 13
-1 0.5 0 13 13 13
-1.5 1 0 13 13 13
-3 -0.5 3 22 22 22
-3 0.5 3 21 21 21
-2 0.5 3 20 20 20
-2 -0.5 3 21 21 21
-2.5 0 3 21 21 21
-4 -0.5 3 23 23 23
-4 0.5 3 23 23 23
-3 0.5 3 21 21 21
-3 -0.5 3 22 22 22
-3.5 0 3 22 22 22
-4 0.5 3 23 23 23
-4 1.5 3 23 23 23
-3 1.5 3 22 22 22
-3 0.5 3 21 21 21
-3.5 1 3 22 22 22
-4 -1.5 3 24 24 24
-4 -0.5 3 23 23 23
-3 -0.5 3 22 22 22
-3 -1.5 3 23 23 23
-3.5 -1 3 23 23 23
-3 -1.5 3 23 23 23
-3 -0.5 3 22 22 22
-2 -0.5 3 21 21 21
-2 -1.5 3 22 22 22
-2.5 -1 3 22 22 22
3 -0.5 2 18 18 18
3 0.5 2 18 18 18
4 0.5 2 18 18 18
4 -0.5 2 19 19 19
3.5 0 2 18 18 18
4 0.5 4 25 25 25
4 1.5 4 27 27 27
5 1.5 4 29 29 29
5 0.5 4 28 28 28
4.5 1 4 27 27 27
4 -0.5 5 31 31 31
4 0.5 5 29 29 29
5 0.5 5 33 33 33
5 -0.5 5 34 34 34
4.5 0 5 32 32 32
-5 -1.5 3 100 100 100
-5 -1.5 4 105 105 105
-5 -0.5 4 105 105 105
-5 -0.5 3 100 100 100
-5 -1 3.5 103 103 103
-5 -0.5 4 105 105 105
-5 -0.5 5 109 109 109
-5 0.5 5 109 109 109
-5 0.5 4 105 105 105
-5 0 4.5 107 107 107
2 -1.5 0 47 47 47
2 -1.5 1 47 47 47
2 -0.5 1 31 31 31
2 -0.5 0 38 38 38
2 -1 0.5 41 41 41
2 0.5 0 38 38 38
2 0.5 1 32 32 32
2 1.5 1 47 47 47
2 1.5 0 48 48 48
2 1 0.5 41 41 41
-2 -1.5 2 68 68 68
-2 -1.5 3 64 64 64
-2 -0.5 3 51 51 51
-2 -0.5 2 58 58 58
-2 -1 2.5 60 60 60
-5 -1.5 4 105 105 105
-5 -1.5 5 109 109 109
-5 -0.5 5 109 109 109
-5 -0.5 4 105 105 105
-5 -1 4.5 107 107 107
-5 0.5 3 100 100 100
-5 0.5 4 105 105 105
-5 1.5 4 105 105 105
-5 1.5 3 101 101 101
-5 1 3.5 103 103 103
-4 0.5 5 97 97 97
-4 0.5 6 104 104 104
-4 1.5 6 107 107 107
-4 1.5 5 96 96 96
-4 1 5.5 101 101 101
-5 -0.5 3 100 100 100
-5 -0.5 4 105 105 105
-5 0.5 4 105 105 105
-5 0.5 3 100 100 100
-5 0 3.5 103 103 103
-4 -1.5 5 96 96 96
-4 -1.5 6 107 107 107
-4 -0.5 6 104 104 104
-4 -0.5 5 97 97 97
-4 -1 5.5 101 101 101
4 -0.5 3 68 68 68
4 -0.5 4 81 81 81
4 0.5 4 82 82 82
4 0.5 3 68 68 68
4 0 3.5 75 75 75
-2 -1.5 1 73 73 73
-2 -1.5 2 68 68 68
-2 -0.5 2 58 58 58
-2 -0.5 1 68 68 68
-2 -1 1.5 67 67 67
-2 -0.5 1 68 68 68
-2 -0.5 2 58 58 58
-2 0.5 2 58 58 58
-2 0.5 1 68 68 68
-2 0 1.5 63 63 63
-2 0.5 1 68 68 68
-2 0.5 2 58 58 58
-2 1.5 2 67 67 67
-2 1.5 1 71 71 71
-2 1 1.5 66 66 66
-5 0.5 4 105 105 105
-5 0.5 5 109 109 109
-5 1.5 5 109 109 109
-5 1.5 4 105 105 105
-5 1 4.5 107 107 107
-2 -0.5 2 58 58 58
-2 -0.5 3 51 51 51
-2 0.5 3 51 51 51
-2 0.5 2 58 58 58
-2 0 2.5 55 55 55
-2 -1.5 0 71 71 71
-2 -1.5 1 73 73 73
-2 -0.5 1 68 68 68
-2 -0.5 0 70 70 70
-2 -1 0.5 71 71 71
-2 0.5 0 70 70 70
-2 0.5 1 68 68 68
-2 1.5 1 71 71 71
-2 1.5 0 71 71 71
-2 1 0.5 70 70 70
-2 0.5 2 58 58 58
-2 0.5 3 51 51 51
-2 1.5 3 64 64 64
-2 1.5 2 67 67 67
-2 1 2.5 60 60 60
4 0.5 4 82 82 82
4 0.5 5 89 89 89
4 1.5 5 89 89 89
4 1.5 4 83 83 83
4 1 4.5 86 86 86
4 -0.5 5 89 89 89
4 -0.5 6 94 94 94
4 0.5 6 94 94 94
4 0.5 5 89 89 89
4 0 5.5 91 91 91
-3 -1.5 4 105 105 105
-2 -1.5 4 105 105 105
-2 -1.5 5 109 109 109
-3 -1.5 5 109 109 109
-2.5 -1.5 4.5 107 107 107
2 -1.5 1 90 90 90
3 -1.5 1 90 90 90
3 -1.5 2 95 95 95
2 -1.5 2 95 95 95
2.5 -1.5 1.5 93 93 93
-5 -1.5 3 102 102 102
-4 -1.5 3 101 101 101
-4 -1.5 4 105 105 105
-5 -1.5 4 106 106 106
-4.5 -1.5 3.5 104 104 104
0 -1.5 2 95 95 95
1 -1.5 2 95 95 95
1 -1.5 3 100 100 100
0 -1.5 3 100 100 100
0.5 -1.5 2.5 97 97 97
2 -1.5 0 85 85 85
3 -1.5 0 85 85 85
3 -1.5 1 90 90 90
2 -1.5 1 90 90 90
2.5 -1.5 0.5 88 88 88
2 0.5 0 41 41 41
3 0.5 0 52 52 52
3 0.5 1 44 44 44
2 0.5 1 31 31 31
2.5 0.5 0.5 42 42 42
1 -1.5 1 90 90 90
2 -1.5 1 90 90 90
2 -1.5 2 95 95 95
1 -1.5 2 95 95 95
1.5 -1.5 1.5 92 92 92
-2 -1.5 2 95 95 95
-1 -1.5 2 95 95 95
-1 -1.5 3 100 100 100
-2 -1.5 3 100 100 100
-1.5 -1.5 2.5 98 98 98
-5 -1.5 4 106 106 106
-4 -1.5 4 105 105 105
-4 -1.5 5 109 109 109
-5 -1.5 5 110 110 110
-4.5 -1.5 4.5 108 108 108
0 -1.5 1 90 90 90
1 -1.5 1 90 90 90
1 -1.5 2 95 95 95
0 -1.5 2 95 95 95
0.5 -1.5 1.5 92 92 92
-4 0.5 5 81 81 81
-3 0.5 5 79 79 79
-3 0.5 6 92 92 92
-4 0.5 6 93 93 93
-3.5 0.5 5.5 86 86 86
-1 -1.5 1 90 90 90
0 -1.5 1 90 90 90
0 -1.5 2 95 95 95
-1 -1.5 2 95 95 95
-0.5 -1.5 1.5 92 92 92
-4 -1.5 5 109 109 109
-3 -1.5 5 109 109 109
-3 -1.5 6 113 113 113
-4 -1.5 6 114 114 114
-3.5 -1.5 5.5 111 111 111
4 -0.5 3 93 93 93
5 -0.5 3 98 98 98
5 -0.5 4 104 104 104
4 -0.5 4 103 103 103
4.5 -0.5 3.5 99 99 99
-2 -1.5 1 90 90 90
-1 -1.5 1 90 90 90
-1 -1.5 2 95 95 95
-2 -1.5 2 95 95 95
-1.5 -1.5 1.5 93 93 93
-2 -1.5 0 85 85 85
-1 -1.5 0 85 85 85
-1 -1.5 1 90 90 90
-2 -1.5 1 90 90 90
-1.5 -1.5 0.5 88 88 88
-2 0.5 0 48 48 48
-1 0.5 0 39 39 39
-1 0.5 1 30 30 30
-2 0.5 1 43 43 43
-1.5 0.5 0.5 40 40 40
-4 -1.5 4 105 105 105
-3 -1.5 4 105 105 105
-3 -1.5 5 109 109 109
-4 -1.5 5 109 109 109
-3.5 -1.5 4.5 107 107 107
-4 -1.5 3 101 101 101
-3 -1.5 3 101 101 101
-3 -1.5 4 105 105 105
-4 -1.5 4 105 105 105
-3.5 -1.5 3.5 103 103 103
-3 -1.5 3 101 101 101
-2 -1.5 3 100 100 100
-2 -1.5 4 105 105 105
-3 -1.5 4 105 105 105
-2.5 -1.5 3.5 102 102 102
1 -1.5 2 95 95 95
2 -1.5 2 95 95 95
2 -1.5 3 100 100 100
1 -1.5 3 100 100 100
1.5 -1.5 2.5 97 97 97
2 -1.5 2 95 95 95
3 -1.5 2 95 95 95
3 -1.5 3 100 100 100
2 -1.5 3 100 100 100
2.5 -1.5 2.5 97 97 97
3 -0.5 2 73 73 73
4 -0.5 2 81 81 81
4 -0.5 3 93 93 93
3 -0.5 3 91 91 91
3.5 -0.5 2.5 84 84 84
-1 -1.5 2 95 95 95
0 -1.5 2 95 95 95
0 -1.5 3 100 100 100
-1 -1.5 3 100 100 100
-0.5 -1.5 2.5 97 97 97
4 0.5 4 76 76 76
5 0.5 4 81 81 81
5 0.5 5 85 85 85
4 0.5 5 81 81 81
4.5 0.5 4.5 81 81 81
4 -0.5 5 108 108 108
5 -0.5 5 109 109 109
5 -0.5 6 112 112 112
4 -0.5 6 112 112 112
4.5 -0.5 5.5 110 110 110
3 4 0 1
3 4 1 2
3 4 2 3
3 4 3 0
3 9 5 6
3 9 6 7
3 9 7 8
3 9 8 5
3 14 10 11
3 14 11 12
3 14 12 13
3 14 13 10
3 19 15 16
3 19 16 17
3 19 17 18
3 19 18 15
3 24 20 21
3 24 21 22
3 24 22 23
3 24 23 20
3 29 25 26
3 29 26 27
3 29 27 28
3 29 28 25
3 34 30 31
3 34 31 32
3 34 32 33
3 34 33 30
3 39 35 36
3 39 36 37
3 39 37 38
3 39 38 35
3 44 40 41
3 44 41 42
3 44 42 43
3 44 43 40
3 49 45 46
3 49 46 47
3 49 47 48
3 49 48 45
3 54 50 51
3 54 51 52
3 54 52 53
3 54 53 50
3 59 55 56
3 59 56 57
3 59 57 58
3 59 58 55
3 64 60 61
3 64 61 62
3 64 62 63
3 64 63 60
3 69 65 66
3 69 66 67
3 69 67 68
3 69 68 65
3 74 70 71
3 74 71 72
3 74 72 73
3 74 73 70
3 79 75 76
3 79 76 77
3 79 77 78
3 79 78 75
3 84 80 81
3 84 81 82
3 84 82 83
3 84 83 80
3 89 85 86
3 89 86 87
3 89 87 88
3 89 88 85
3 94 90 91
3 94 91 92
3 94 92 93
3 94 93 90
3 99 95 96
3 99 96 97
3 99 97 98
3 99 98 95
3 104 100 101
3 104 101 102
3 104 102 103
3 104 103 100
3 109 105 106
3 109 106 107
3 109 107 108
3 109 108 105
3 114 110 111
3 114 111 112
3 114 112 113
3 114 113 110
3 119 115 116
3 119 116 117
3 119 117 118
3 119 118 115
3 124 120 121
3 124 121 122
3 124 122 123
3 124 123 120
3 129 125 126
3 129 126 127
3 129 127 128
3 129 128 125
3 134 130 131
3 134 131 132
3 134 132 133
3 134 133 130
3 139 135 136
3 139 136 137
3 139 137 138
3 139 138 135
3 144 140 141
3 144 141 142
3 144 142 143
3 144 143 140
3 149 145 146
3 149 146 147
3 149 147 148
3 149 148 145
3 154 150 151
3 154 151 152
3 154 152 153
3 154 153 150
3 159 155 156
3 159 156 157
3 159 157 158
3 159 158 155
3 164 160 161
3 164 161 162
3 164 162 163
3 164 163 160
3 169 165 166
3 169 166 167
3 169 167 168
3 169 168 165
3 174 170 171
3 174 171 172
3 174 172 173
3 174 173 170
3 179 175 176
3 179 176 177
3 179 177 178
3 179 178 175
3 184 180 181
3 184 181 182
3 184 182 183
3 184 183 180
3 189 185 186
3 189 186 187
3 189 187 188
3 189 188 185
3 194 190 191
3 194 191 192
3 194 192 193
3 194 193 190
3 199 195 196
3 199 196 197
3 199 197 198
3 199 198 195
3 204 200 201
3 204 201 202
3 204 202 203
3 204 203 200
3 209 205 206
3 209 206 207
3 209 207 208
3 209 208 205
3 214 210 211
3 214 211 212
3 214 212 213
3 214 213 210
3 219 215 216
3 219 216 217
3 219 217 218
3 219 218 215
3 224 220 221
3 224 221 222
3 224 222 223
3 224 223 220
3 229 225 226
3 229 226 227
3 229 227 228
3 229 228 225
3 234 230 231
3 234 231 232
3 234 232 233
3 234 233 230
3 239 235 236
3 239 236 237
3 239 237 238
3 239 238 235
3 244 240 241
3 244 241 242
3 244 242 243
3 244 243 240
3 249 245 246
3 249 246 247
3 249 247 248
3 249 248 245
3 254 250 251
3 254 251 252
3 254 252 253
3 254 253 250
3 259 255 256
3 259 256 257
3 259 257 258
3 259 258 255
3 264 260 261
3 264 261 262
3 264 262 263
3 264 263 260
3 269 265 266
3 269 266 267
3 269 267 268
3 269 268 265
3 274 270 271
3 274 271 272
3 274 272 273
3 274 273 270
3 279 275 276
3 279 276 277
3 279 277 278
3 279 278 275
3 284 280 281
3 284 281 282
3 284 282 283
3 284 283 280
3 289 285 286
3 289 286 287
3 289 287 288
3 289 288 285
3 294 290 291
3 294 291 292
3 294 292 293
3 294 293 290
3 299 295 296
3 299 296 297
3 299 297 298
3 299 298 295
3 304 300 301
3 304 301 302
3 304 302 303
3 304 303 300
3 309 305 306
3 309 306 307
3 309 307 308
3 309 308 305
3 314 310 311
3 314 311 312
3 314 312 313
3 314 313 310
3 319 315 316
3 319 316 317
3 319 317 318
3 319 318 315
3 324 320 321
3 324 321 322
3 324 322 323
3 324 323 320
3 329 325 326
3 329 326 327
3 329 327 328
3 329 328 325
3 334 330 331
3 334 331 332
3 334 332 333
3 334 333 330
3 339 335 336
3 339 336 337
3 339 337 338
3 339 338 335
3 344 340 341
3 344 341 342
3 344 342 343
3 344 343 340
3 349 345 346
3 349 346 347
3 349 347 348
3 349 348 345
3 354 350 351
3 354 351 352
3 354 352 353
3 354 353 350
3 359 355 356
3 359 356 357
3 359 357 358
3 359 358 355
3 364 360 361
3 364 361 362
3 364 362 363
3 364 363 360
3 369 365 366
3 369 366 367
3 369 367 368
3 369 368 365
3 374 370 371
3 374 371 372
3 374 372 373
3 374 373 370
3 379 375 376
3 379 376 377
3 379 377 378
3 379 378 375
3 384 380 381
3 384 381 382
3 384 382 383
3 384 383 380
3 389 385 386
3 389 386 387
3 389 387 388
3 389 388 385
3 394 390 391
3 394 391 392
3 394 392 393
3 394 393 390
3 399 395 396
3 399 396 397
3 399 397 398
3 399 398 395
3 404 400 401
3 404 401 402
3 404 402 403
3 404 403 400
3 409 405 406
3 409 406 407
3 409 407 408
3 409 408 405
3 414 410 411
3 414 411 412
3 414 412 413
3 414 413 410
3 419 415 416
3 419 416 417
3 419 417 418
3 419 418 415
3 424 420 421
3 424 421 422
3 424 422 423
3 424 423 420
3 429 425 426
3 429 426 427
3 429 427 428
3 429 428 425
3 434 430 431
3 434 431 432
3 434 432 433
3 434 433 430
3 439 435 436
3 439 436 437
3 439 437 438
3 439 438 435
3 444 440 441
3 444 441 442
3 444 442 443
3 444 443 440
3 449 445 446
3 449 446 447
3 449 447 448
3 449 448 445
3 454 450 451
3 454 451 452
3 454 452 453
3 454 453 450
3 459 455 456
3 459 456 457
3 459 457 458
3 459 458 455
3 464 460 461
3 464 461 462
3 464 462 463
3 464 463 460
3 469 465 466
3 469 466 467
3 469 467 468
3 469 468 465
3 474 470 471
3 474 471 472
3 474 472 473
3 474 473 470
3 479 475 476
3 479 476 477
3 479 477 478
3 479 478 475
3 484 480 481
3 484 481 482
3 484 482 483
3 484 483 480
3 489 485 486
3 489 486 487
3 489 487 488
3 489 488 485
3 494 490 491
3 494 491 492
3 494 492 493
3 494 493 490
3 499 495 496
3 499 496 497
3 499 497 498
3 499 498 495
3 504 500 501
3 504 501 502
3 504 502 503
3 504 503 500
3 509 505 506
3 509 506 507
3 509 507 508
3 509 508 505
3 514 510 511
3 514 511 512
3 514 512 513
3 514 513 510
3 519 515 516
3 519 516 517
3 519 517 518
3 519 518 515
3 524 520 521
3 524 521 522
3 524 522 523
3 524 523 520
3 529 525 526
3 529 526 527
3 529 527 528
3 529 528 525
3 534 530 531
3 534 531 532
3 534 532 533
3 534 533 530
3 539 535 536
3 539 536 537
3 539 537 538
3 539 538 535
3 544 540 541
3 544 541 542
3 544 542 543
3 544 543 540
3 549 545 546
3 549 546 547
3 549 547 548
3 549 548 545
3 554 550 551
3 554 551 552
3 554 552 553
3 554 553 550
3 559 555 556
3 559 556 557
3 559 557 558
3 559 558 555
3 564 560 561
3 564 561 562
3 564 562 563
3 564 563 560
3 569 565 566
3 569 566 567
3 569 567 568
3 569 568 565
3 574 570 571
3 574 571 572
3 574 572 573
3 574 573 570
3 579 575 576
3 579 576 577
3 579 577 578
3 579 578 575
3 584 580 581
3 584 581 582
3 584 582 583
3 584 583 580
3 589 585 586
3 589 586 587
3 589 587 588
3 589 588 585
3 594 590 591
3 594 591 592
3 594 592 593
3 594 593 590
3 599 595 596
3 599 596 597
3 599 597 598
3 599 598 595
3 604 600 601
3 604 601 602
3 604 602 603
3 604 603 600
3 609 605 606
3 609 606 607
3 609 607 608
3 609 608 605
3 614 610 611
3 614 611 612
3 614 612 613
3 614 613 610
3 619 615 616
3 619 616 617
3 619 617 618
3 619 618 615
3 624 620 621
3 624 621 622
3 624 622 623
3 624 623 620
3 629 625 626
3 629 626 627
3 629 627 628
3 629 628 625
3 634 630 631
3 634 631 632
3 634 632 633
3 634 633 630
3 639 635 636
3 639 636 637
3 639 637 638
3 639 638 635
3 644 640 641
3 644 641 642
3 644 642 643
3 644 643 640
3 649 645 646
3 649 646 647
3 649 647 648
3 649 648 645
3 654 650 651
3 654 651 652
3 654 652 653
3 654 653 650
3 659 655 656
3 659 656 657
3 659 657 658
3 659 658 655
3 664 660 661
3 664 661 662
3 664 662 663
3 664 663 660
3 669 665 666
3 669 666 667
3 669 667 668
3 669 668 665
3 674 670 671
3 674 671 672
3 674 672 673
3 674 673 670
3 679 675 676
3 679 676 677
3 679 677 678
3 679 678 675
3 684 680 681
3 684 681 682
3 684 682 683
3 684 683 680
3 689 685 686
3 689 686 687
3 689 687 688
3 689 688 685
3 694 690 691
3 694 691 692
3 694 692 693
3 694 693 690
3 699 695 696
3 699 696 697
3 699 697 698
3 699 698 695
3 704 700 701
3 704 701 702
3 704 702 703
3 704 703 700
3 709 705 706
3 709 706 707
3 709 707 708
3 709 708 705
3 714 710 711
3 714 711 712
3 714 712 713
3 714 713 710
3 719 715 716
3 719 716 717
3 719 717 718
3 719 718 715
3 724 720 721
3 724 721 722
3 724 722 723
3 724 723 720
3 729 725 726
3 729 726 727
3 729 727 728
3 729 728 725
3 734 730 731
3 734 731 732
3 734 732 733
3 734 733 730
3 739 735 736
3 739 736 737
3 739 737 738
3 739 738 735
3 744 740 741
3 744 741 742
3 744 742 743
3 744 743 740
3 749 745 746
3 749 746 747
3 749 747 748
3 749 748 745
